<?xml version="1.0" encoding="UTF-8"?>
<!DOCTYPE svg PUBLIC "-//W3C//DTD SVG 1.1//EN" "http://www.w3.org/Graphics/SVG/1.1/DTD/svg11.dtd">
<svg xmlns="http://www.w3.org/2000" version="1.1" width="900px" height="113px" style="shape-rendering:geometricPrecision; text-rendering:geometricPrecision; image-rendering:optimizeQuality; fill-rule:evenodd; clip-rule:evenodd" xmlns:xlink="http://www.w3.org/1999/xlink">
<g><path style="opacity:1" fill="#ffffff" d="M 385.5,-0.5 C 392.833,-0.5 400.167,-0.5 407.5,-0.5C 407.5,2.83333 407.5,6.16667 407.5,9.5C 403.154,9.33432 398.821,9.50098 394.5,10C 393.263,10.2321 392.263,10.7321 391.5,11.5C 385.598,13.4089 381.264,17.0755 378.5,22.5C 376.967,24.6345 376.3,27.1345 376.5,30C 376.506,32.0326 376.839,33.866 377.5,35.5C 378.038,37.1172 378.371,38.7839 378.5,40.5C 378.427,42.0269 379.094,43.0269 380.5,43.5C 383.238,46.2463 386.238,48.5797 389.5,50.5C 390.263,51.2679 391.263,51.7679 392.5,52C 399.346,52.8206 406.013,52.654 412.5,51.5C 412.104,41.8742 414.27,32.8742 419,24.5C 419.708,23.6195 420.542,22.9528 421.5,22.5C 423.5,21.1667 425.167,19.5 426.5,17.5C 433.954,11.5525 442.287,9.55254 451.5,11.5C 453.905,12.7682 456.572,13.4349 459.5,13.5C 461.819,13.9925 463.819,14.9925 465.5,16.5C 466.326,18.2644 467.659,19.5977 469.5,20.5C 470.833,21.1667 471.833,22.1667 472.5,23.5C 472.427,25.0269 473.094,26.0269 474.5,26.5C 478.337,32.4934 480.337,39.1601 480.5,46.5C 479.989,50.0018 479.322,53.3351 478.5,56.5C 476.992,58.1815 475.992,60.1815 475.5,62.5C 475.672,63.4916 475.338,64.1583 474.5,64.5C 473.957,64.56 473.624,64.8933 473.5,65.5C 487.994,66.8259 502.328,66.8259 516.5,65.5C 524.037,62.7021 524.37,59.0355 517.5,54.5C 516.365,52.7868 514.698,52.1201 512.5,52.5C 511.01,50.7202 509.01,50.0535 506.5,50.5C 504.485,49.0762 502.152,48.4095 499.5,48.5C 488.582,46.5873 482.582,40.2539 481.5,29.5C 481.287,26.4733 481.953,23.8066 483.5,21.5C 485.833,19.8333 487.833,17.8333 489.5,15.5C 493.796,13.3253 498.463,11.992 503.5,11.5C 513.48,11.2503 523.48,11.5836 533.5,12.5C 533.5,16.1667 533.5,19.8333 533.5,23.5C 521.322,23.1716 509.322,23.5049 497.5,24.5C 496.833,25.1667 496.167,25.8333 495.5,26.5C 493.403,27.8786 493.07,29.5453 494.5,31.5C 495.872,32.5116 497.205,33.5116 498.5,34.5C 499.287,36.1042 500.62,36.7709 502.5,36.5C 509.974,38.1577 517.308,40.3244 524.5,43C 536.115,50.1206 538.615,59.6206 532,71.5C 528.896,74.9329 525.063,77.0996 520.5,78C 492.5,78.6667 464.5,78.6667 436.5,78C 435.205,74.2136 435.205,70.3803 436.5,66.5C 443.953,66.0454 451.286,65.0454 458.5,63.5C 461.5,62.5 463.5,60.5 464.5,57.5C 465.632,54.4487 466.632,51.4487 467.5,48.5C 468.774,44.7353 468.441,41.0687 466.5,37.5C 465.186,34.8721 463.853,32.2054 462.5,29.5C 461.738,27.7376 460.404,26.7376 458.5,26.5C 444.745,19.8636 434.412,23.1969 427.5,36.5C 425.989,38.4758 425.156,40.8091 425,43.5C 424.199,46.367 424.366,49.0336 425.5,51.5C 432.648,52.4916 439.981,52.825 447.5,52.5C 447.5,56.1667 447.5,59.8333 447.5,63.5C 439.833,63.5 432.167,63.5 424.5,63.5C 424.5,79.1667 424.5,94.8333 424.5,110.5C 420.833,110.5 417.167,110.5 413.5,110.5C 413.5,94.8333 413.5,79.1667 413.5,63.5C 407.167,63.5 400.833,63.5 394.5,63.5C 390.628,63.7578 386.961,63.0911 383.5,61.5C 383.027,60.0937 382.027,59.427 380.5,59.5C 366.999,51.8243 361.499,40.1576 364,24.5C 366.784,12.2277 373.951,3.89438 385.5,-0.5 Z"/></g>
<g><path style="opacity:1" fill="#ffffff" d="M 787.5,0.5 C 787.5,0.166667 787.5,-0.166667 787.5,-0.5C 788.167,-0.5 788.833,-0.5 789.5,-0.5C 789.768,1.09903 789.434,2.43236 788.5,3.5C 788.737,2.20895 788.404,1.20895 787.5,0.5 Z"/></g>
<g><path style="opacity:1" fill="#ffffff" d="M 787.5,0.5 C 788.404,1.20895 788.737,2.20895 788.5,3.5C 787.197,5.14226 785.864,6.80893 784.5,8.5C 784.5,8.83333 784.5,9.16667 784.5,9.5C 776.462,12.3814 768.128,13.7147 759.5,13.5C 762.028,12.8343 764.694,12.1676 767.5,11.5C 762.88,10.5067 758.214,10.1734 753.5,10.5C 760.704,9.8037 768.037,8.97037 775.5,8C 780.455,6.85099 784.455,4.35099 787.5,0.5 Z"/></g>
<g><path style="opacity:1" fill="#ffffff" d="M 788.5,3.5 C 789.291,5.69074 789.291,7.69074 788.5,9.5C 788.631,8.76109 788.464,8.09442 788,7.5C 787.292,8.38053 786.458,9.0472 785.5,9.5C 785.5,8.83333 785.167,8.5 784.5,8.5C 785.864,6.80893 787.197,5.14226 788.5,3.5 Z"/></g>
<g><path style="opacity:1" fill="#ffffff" d="M 407.5,-0.5 C 407.833,-0.5 408.167,-0.5 408.5,-0.5C 408.5,3.16667 408.5,6.83333 408.5,10.5C 402.797,10.3748 397.13,10.7081 391.5,11.5C 392.263,10.7321 393.263,10.2321 394.5,10C 398.821,9.50098 403.154,9.33432 407.5,9.5C 407.5,6.16667 407.5,2.83333 407.5,-0.5 Z"/></g>
<g><path style="opacity:1" fill="#ffffff" d="M 753.5,10.5 C 758.214,10.1734 762.88,10.5067 767.5,11.5C 764.694,12.1676 762.028,12.8343 759.5,13.5C 754.482,13.6133 749.482,13.9466 744.5,14.5C 742.348,15.0768 742.015,16.2435 743.5,18C 748.478,17.949 753.478,17.7823 758.5,17.5C 761.85,17.335 765.183,17.5017 768.5,18C 767.263,18.2321 766.263,18.7321 765.5,19.5C 758.242,20.0881 750.909,21.0881 743.5,22.5C 753.494,23.5482 763.494,23.5482 773.5,22.5C 777.639,22.7517 780.972,21.4184 783.5,18.5C 784.167,17.5 784.833,16.5 785.5,15.5C 785.833,15.5 786.167,15.5 786.5,15.5C 787.925,13.9689 788.591,14.3023 788.5,16.5C 788.5,16.8333 788.5,17.1667 788.5,17.5C 786.833,19.1667 785.167,20.8333 783.5,22.5C 783.158,23.3382 782.492,23.6716 781.5,23.5C 776.651,24.2162 771.985,25.2162 767.5,26.5C 756.545,27.062 745.545,28.3953 734.5,30.5C 733.761,30.631 733.094,30.4643 732.5,30C 733.764,27.2264 732.764,25.7264 729.5,25.5C 729.279,24.2652 728.612,23.2652 727.5,22.5C 728.711,21.2798 728.711,20.1131 727.5,19C 728.71,17.9609 729.71,16.7942 730.5,15.5C 733.68,13.1531 737.347,11.6531 741.5,11C 745.486,10.5012 749.486,10.3345 753.5,10.5 Z M 785.5,15.5 C 784.833,16.5 784.167,17.5 783.5,18.5C 780.011,19.658 776.678,20.9914 773.5,22.5C 763.494,23.5482 753.494,23.5482 743.5,22.5C 750.909,21.0881 758.242,20.0881 765.5,19.5C 772.622,20.2504 779.288,18.917 785.5,15.5 Z"/></g>
<g><path style="opacity:1" fill="#ffffff" d="M 788.5,9.5 C 788.5,9.83333 788.5,10.1667 788.5,10.5C 787.026,11.4363 786.026,12.7697 785.5,14.5C 785.5,14.8333 785.5,15.1667 785.5,15.5C 779.288,18.917 772.622,20.2504 765.5,19.5C 766.263,18.7321 767.263,18.2321 768.5,18C 765.183,17.5017 761.85,17.335 758.5,17.5C 758.5,17.1667 758.5,16.8333 758.5,16.5C 766.84,16.7141 774.84,15.2141 782.5,12C 783.381,11.2917 784.047,10.4584 784.5,9.5C 784.833,9.5 785.167,9.5 785.5,9.5C 786.458,9.0472 787.292,8.38053 788,7.5C 788.464,8.09442 788.631,8.76109 788.5,9.5 Z"/></g>
<g><path style="opacity:1" fill="#ffffff" d="M 788.5,10.5 C 789.291,12.6907 789.291,14.6907 788.5,16.5C 788.591,14.3023 787.925,13.9689 786.5,15.5C 786.5,14.8333 786.167,14.5 785.5,14.5C 786.026,12.7697 787.026,11.4363 788.5,10.5 Z"/></g>
<g><path style="opacity:1" fill="#ffffff" d="M 451.5,11.5 C 454.495,11.2938 457.162,11.9605 459.5,13.5C 456.572,13.4349 453.905,12.7682 451.5,11.5 Z"/></g>
<g><path style="opacity:1" fill="#ffffff" d="M 97.5,15.5 C 109.833,15.5 122.167,15.5 134.5,15.5C 134.784,18.7766 134.451,21.9433 133.5,25C 124.173,25.4998 114.839,25.6665 105.5,25.5C 105.5,30.5 105.5,35.5 105.5,40.5C 114.017,40.1739 122.35,40.5073 130.5,41.5C 130.5,44.1667 130.5,46.8333 130.5,49.5C 121.766,48.865 113.433,49.5316 105.5,51.5C 105.5,59.5 105.5,67.5 105.5,75.5C 102.167,75.5 98.8333,75.5 95.5,75.5C 94.8639,55.2666 95.5306,35.2666 97.5,15.5 Z"/></g>
<g><path style="opacity:1" fill="#ffffff" d="M 744.5,14.5 C 743.147,15.8671 743.481,16.8671 745.5,17.5C 749.765,16.5614 754.098,16.2281 758.5,16.5C 758.5,16.8333 758.5,17.1667 758.5,17.5C 753.478,17.7823 748.478,17.949 743.5,18C 742.015,16.2435 742.348,15.0768 744.5,14.5 Z"/></g>
<g><path style="opacity:1" fill="#ffffff" d="M 465.5,16.5 C 467.773,16.9568 469.106,18.2901 469.5,20.5C 467.659,19.5977 466.326,18.2644 465.5,16.5 Z"/></g>
<g><path style="opacity:1" fill="#ffffff" d="M 489.5,15.5 C 487.833,17.8333 485.833,19.8333 483.5,21.5C 484.5,18.5 486.5,16.5 489.5,15.5 Z"/></g>
<g><path style="opacity:1" fill="#ffffff" d="M 730.5,15.5 C 729.71,16.7942 728.71,17.9609 727.5,19C 728.711,20.1131 728.711,21.2798 727.5,22.5C 728.612,23.2652 729.279,24.2652 729.5,25.5C 728.167,25.5 726.833,25.5 725.5,25.5C 725.5,26.5 725.5,27.5 725.5,28.5C 724.246,26.6431 724.246,24.6431 725.5,22.5C 725.03,21.537 724.363,21.537 723.5,22.5C 724.833,19.1667 727.167,16.8333 730.5,15.5 Z"/></g>
<g><path style="opacity:1" fill="#ffffff" d="M 788.5,17.5 C 788.5,18.5 788.5,19.5 788.5,20.5C 787.728,21.6935 786.728,22.6935 785.5,23.5C 785.158,22.6618 784.492,22.3284 783.5,22.5C 785.167,20.8333 786.833,19.1667 788.5,17.5 Z"/></g>
<g><path style="opacity:1" fill="#ffffff" d="M 783.5,18.5 C 780.972,21.4184 777.639,22.7517 773.5,22.5C 776.678,20.9914 780.011,19.658 783.5,18.5 Z"/></g>
<g><path style="opacity:1" fill="#ffffff" d="M 426.5,17.5 C 425.167,19.5 423.5,21.1667 421.5,22.5C 422.167,19.8333 423.833,18.1667 426.5,17.5 Z"/></g>
<g><path style="opacity:1" fill="#ffffff" d="M 198.5,32.5 C 201.962,33.4816 205.629,33.815 209.5,33.5C 209.5,35.8333 209.5,38.1667 209.5,40.5C 205.629,40.185 201.962,40.5184 198.5,41.5C 197.345,48.3209 197.179,55.3209 198,62.5C 198.278,63.4158 198.778,64.0825 199.5,64.5C 202.846,66.3236 206.513,66.9903 210.5,66.5C 210.5,69.8333 210.5,73.1667 210.5,76.5C 202.47,77.4563 195.637,75.123 190,69.5C 188.583,60.2479 188.083,50.9146 188.5,41.5C 186.735,40.5386 184.735,40.2053 182.5,40.5C 182.5,38.1667 182.5,35.8333 182.5,33.5C 184.735,33.7947 186.735,33.4614 188.5,32.5C 188.5,28.5 188.5,24.5 188.5,20.5C 191.777,20.2161 194.943,20.5495 198,21.5C 198.499,25.1516 198.665,28.8183 198.5,32.5 Z"/></g>
<g><path style="opacity:1" fill="#ffffff" d="M 533.5,12.5 C 534.483,16.2984 534.817,20.2984 534.5,24.5C 522.167,24.5 509.833,24.5 497.5,24.5C 509.322,23.5049 521.322,23.1716 533.5,23.5C 533.5,19.8333 533.5,16.1667 533.5,12.5 Z"/></g>
<g><path style="opacity:1" fill="#ffffff" d="M 725.5,28.5 C 726.605,29.6005 727.938,30.2671 729.5,30.5C 729.5,31.5 729.5,32.5 729.5,33.5C 728.833,33.5 728.5,33.8333 728.5,34.5C 727.167,34.5 726.5,35.1667 726.5,36.5C 723.634,38.5584 722.801,41.2251 724,44.5C 722.59,38.6208 722.09,32.6208 722.5,26.5C 722.232,24.901 722.566,23.5676 723.5,22.5C 724.363,21.537 725.03,21.537 725.5,22.5C 724.246,24.6431 724.246,26.6431 725.5,28.5 Z"/></g>
<g><path style="opacity:1" fill="#ffffff" d="M 472.5,23.5 C 473.906,23.9731 474.573,24.9731 474.5,26.5C 473.094,26.0269 472.427,25.0269 472.5,23.5 Z"/></g>
<g><path style="opacity:1" fill="#ffffff" d="M 781.5,23.5 C 777.262,25.9561 772.596,26.9561 767.5,26.5C 771.985,25.2162 776.651,24.2162 781.5,23.5 Z"/></g>
<g><path style="opacity:1" fill="#ffffff" d="M 784.5,24.5 C 784.027,25.9063 783.027,26.573 781.5,26.5C 781.973,25.0937 782.973,24.427 784.5,24.5 Z"/></g>
<g><path style="opacity:1" fill="#ffffff" d="M 458.5,26.5 C 460.404,26.7376 461.738,27.7376 462.5,29.5C 460.596,29.2624 459.262,28.2624 458.5,26.5 Z"/></g>
<g><path style="opacity:1" fill="#ffffff" d="M 788.5,20.5 C 789.686,21.7054 789.686,23.0387 788.5,24.5C 786.142,26.5293 783.808,28.5293 781.5,30.5C 776.152,33.0053 770.486,34.0053 764.5,33.5C 758.491,33.3338 752.491,33.5005 746.5,34C 742.867,34.1489 739.534,34.9823 736.5,36.5C 734.188,37.3414 731.855,38.3414 729.5,39.5C 728.529,38.0379 728.862,36.7046 730.5,35.5C 732.734,33.5541 735.401,32.3874 738.5,32C 749.824,30.9264 761.157,29.9264 772.5,29C 775.546,28.2612 778.546,27.4279 781.5,26.5C 783.027,26.573 784.027,25.9063 784.5,24.5C 784.5,23.8333 784.833,23.5 785.5,23.5C 786.728,22.6935 787.728,21.6935 788.5,20.5 Z"/></g>
<g><path style="opacity:1" fill="#ffffff" d="M 495.5,26.5 C 494.962,28.1172 494.629,29.7839 494.5,31.5C 493.07,29.5453 493.403,27.8786 495.5,26.5 Z"/></g>
<g><path style="opacity:1" fill="#ffffff" d="M 788.5,24.5 C 788.465,26.4912 788.465,28.4912 788.5,30.5C 788.631,29.7611 788.464,29.0944 788,28.5C 786.223,30.7899 784.056,32.4566 781.5,33.5C 781.953,32.5416 782.619,31.7083 783.5,31C 782.906,30.5357 782.239,30.369 781.5,30.5C 783.808,28.5293 786.142,26.5293 788.5,24.5 Z"/></g>
<g><path style="opacity:1" fill="#ffffff" d="M 729.5,25.5 C 732.764,25.7264 733.764,27.2264 732.5,30C 733.094,30.4643 733.761,30.631 734.5,30.5C 732.78,31.3077 731.113,32.3077 729.5,33.5C 729.5,32.5 729.5,31.5 729.5,30.5C 731.511,29.2578 731.511,27.5911 729.5,25.5 Z"/></g>
<g><path style="opacity:1" fill="#ffffff" d="M 378.5,22.5 C 377.705,26.7853 377.372,31.1186 377.5,35.5C 376.839,33.866 376.506,32.0326 376.5,30C 376.3,27.1345 376.967,24.6345 378.5,22.5 Z"/></g>
<g><path style="opacity:1" fill="#ffffff" d="M 173.5,38.5 C 173.427,40.0269 174.094,41.0269 175.5,41.5C 176.477,52.7524 176.811,64.0857 176.5,75.5C 173.5,75.5 170.5,75.5 167.5,75.5C 167.785,73.712 167.452,72.0453 166.5,70.5C 165.893,70.6236 165.56,70.9569 165.5,71.5C 158.872,76.5341 151.538,77.7008 143.5,75C 138.554,70.4266 137.22,64.9266 139.5,58.5C 140.906,58.0269 141.573,57.0269 141.5,55.5C 142.262,53.7376 143.596,52.7376 145.5,52.5C 152.804,51.6979 160.138,51.3646 167.5,51.5C 167.795,49.2646 167.461,47.2646 166.5,45.5C 162.525,40.1634 157.525,39.1634 151.5,42.5C 150.433,44.5586 149.1,46.392 147.5,48C 144.869,47.7233 142.369,47.8899 140,48.5C 139.073,45.1368 139.573,42.1368 141.5,39.5C 143.167,38.5 144.5,37.1667 145.5,35.5C 147.027,35.573 148.027,34.9063 148.5,33.5C 156.023,30.6435 163.357,31.1435 170.5,35C 171.71,36.0391 172.71,37.2058 173.5,38.5 Z M 166.5,58.5 C 166.747,60.8583 166.081,62.8583 164.5,64.5C 159.846,67.0205 154.846,68.0205 149.5,67.5C 148.314,65.1256 148.314,62.7922 149.5,60.5C 150.289,60.2172 150.956,59.7172 151.5,59C 156.489,58.5007 161.489,58.3341 166.5,58.5 Z"/></g>
<g><path style="opacity:1" fill="#ffffff" d="M 252.5,45.5 C 252.5,49.1667 252.5,52.8333 252.5,56.5C 243.318,56.1734 234.318,56.5067 225.5,57.5C 225.014,61.5693 226.347,64.7359 229.5,67C 234.705,68.2821 239.372,67.4487 243.5,64.5C 246.145,62.7581 249.145,62.0914 252.5,62.5C 252.5,63.5 252.5,64.5 252.5,65.5C 251.953,70.3807 249.286,73.3807 244.5,74.5C 237.841,75.7832 231.174,75.7832 224.5,74.5C 220.412,72.7461 217.745,69.7461 216.5,65.5C 216.302,57.4659 216.635,49.4659 217.5,41.5C 221.095,34.9518 226.762,31.6184 234.5,31.5C 241.206,31.7851 246.706,34.4518 251,39.5C 252.128,41.3453 252.628,43.3453 252.5,45.5 Z M 241.5,42.5 C 241.932,43.7095 242.599,44.7095 243.5,45.5C 243.5,47.1667 243.5,48.8333 243.5,50.5C 237.5,50.5 231.5,50.5 225.5,50.5C 225.5,49.1667 225.5,47.8333 225.5,46.5C 226.593,44.6508 227.926,42.9842 229.5,41.5C 233.612,40.1908 237.612,40.5241 241.5,42.5 Z"/></g>
<g><path style="opacity:1" fill="#ffffff" d="M 295.5,38.5 C 295.427,40.0269 296.094,41.0269 297.5,41.5C 298.434,42.5676 298.768,43.901 298.5,45.5C 298.5,46.5 298.5,47.5 298.5,48.5C 295.5,48.5 292.5,48.5 289.5,48.5C 289.737,47.209 289.404,46.209 288.5,45.5C 286.597,42.4673 283.764,41.1339 280,41.5C 276.876,41.1102 274.376,42.1102 272.5,44.5C 271.778,44.9175 271.278,45.5842 271,46.5C 270.184,51.6842 270.35,56.6842 271.5,61.5C 273.721,66.7732 277.721,68.6065 283.5,67C 285.452,66.6339 287.118,65.8005 288.5,64.5C 289.434,63.4324 289.768,62.099 289.5,60.5C 292.167,60.5 294.833,60.5 297.5,60.5C 297.5,62.5 297.5,64.5 297.5,66.5C 296.053,71.6141 292.72,74.6141 287.5,75.5C 281.797,75.6252 276.13,75.2919 270.5,74.5C 265.152,72.3138 262.319,68.3138 262,62.5C 260.912,54.6403 261.579,46.9737 264,39.5C 268.344,34.1626 274.011,31.4959 281,31.5C 287.017,31.5929 291.85,33.9263 295.5,38.5 Z"/></g>
<g><path style="opacity:1" fill="#ffffff" d="M 788.5,30.5 C 788.5,30.8333 788.5,31.1667 788.5,31.5C 784.632,35.0576 780.299,37.7243 775.5,39.5C 762.168,40.6798 748.835,42.0131 735.5,43.5C 734.127,43.6567 732.793,43.49 731.5,43C 732.056,42.6174 732.389,42.1174 732.5,41.5C 736.833,39.4983 741.5,38.4983 746.5,38.5C 753.175,38.6663 759.842,38.4996 766.5,38C 768.708,37.8091 770.708,37.3091 772.5,36.5C 776.081,36.8624 779.081,35.8624 781.5,33.5C 784.056,32.4566 786.223,30.7899 788,28.5C 788.464,29.0944 788.631,29.7611 788.5,30.5 Z"/></g>
<g><path style="opacity:1" fill="#ffffff" d="M 148.5,33.5 C 148.027,34.9063 147.027,35.573 145.5,35.5C 145.973,34.0937 146.973,33.427 148.5,33.5 Z"/></g>
<g><path style="opacity:1" fill="#ffffff" d="M 188.5,32.5 C 186.735,33.4614 184.735,33.7947 182.5,33.5C 182.5,35.8333 182.5,38.1667 182.5,40.5C 184.735,40.2053 186.735,40.5386 188.5,41.5C 186.167,41.5 183.833,41.5 181.5,41.5C 181.5,38.5 181.5,35.5 181.5,32.5C 183.833,32.5 186.167,32.5 188.5,32.5 Z"/></g>
<g><path style="opacity:1" fill="#ffffff" d="M 198.5,32.5 C 202.5,32.5 206.5,32.5 210.5,32.5C 210.5,35.5 210.5,38.5 210.5,41.5C 206.5,41.5 202.5,41.5 198.5,41.5C 201.962,40.5184 205.629,40.185 209.5,40.5C 209.5,38.1667 209.5,35.8333 209.5,33.5C 205.629,33.815 201.962,33.4816 198.5,32.5 Z"/></g>
<g><path style="opacity:1" fill="#ffffff" d="M 498.5,34.5 C 500.153,34.6596 501.486,35.3263 502.5,36.5C 500.62,36.7709 499.287,36.1042 498.5,34.5 Z"/></g>
<g><path style="opacity:1" fill="#ffffff" d="M 655.5,37.5 C 651.472,36.3797 647.472,36.3797 643.5,37.5C 643.611,36.8826 643.944,36.3826 644.5,36C 648.477,35.1206 652.144,35.6206 655.5,37.5 Z"/></g>
<g><path style="opacity:1" fill="#ffffff" d="M 664.5,36.5 C 662.833,36.5 661.167,36.5 659.5,36.5C 659.369,35.7611 659.536,35.0944 660,34.5C 661.622,35.0989 663.122,35.7656 664.5,36.5 Z"/></g>
<g><path style="opacity:1" fill="#ffffff" d="M 728.5,34.5 C 728.5,34.8333 728.5,35.1667 728.5,35.5C 727.833,35.5 727.5,35.8333 727.5,36.5C 727.167,36.5 726.833,36.5 726.5,36.5C 726.5,35.1667 727.167,34.5 728.5,34.5 Z"/></g>
<g><path style="opacity:1" fill="#ffffff" d="M 764.5,33.5 C 755.3,34.408 745.966,35.408 736.5,36.5C 739.534,34.9823 742.867,34.1489 746.5,34C 752.491,33.5005 758.491,33.3338 764.5,33.5 Z"/></g>
<g><path style="opacity:1" fill="#ffffff" d="M 781.5,33.5 C 779.081,35.8624 776.081,36.8624 772.5,36.5C 775.33,35.2655 778.33,34.2655 781.5,33.5 Z"/></g>
<g><path style="opacity:1" fill="#ffffff" d="M 655.5,37.5 C 656.959,37.5674 658.292,37.2341 659.5,36.5C 661.167,36.5 662.833,36.5 664.5,36.5C 665.226,40.3434 663.892,43.01 660.5,44.5C 656.836,44.6395 653.336,43.9729 650,42.5C 648.93,42.528 648.097,42.8614 647.5,43.5C 645.718,45.6869 643.552,46.0203 641,44.5C 640.705,41.7583 641.538,39.425 643.5,37.5C 647.472,36.3797 651.472,36.3797 655.5,37.5 Z"/></g>
<g><path style="opacity:1" fill="#ffffff" d="M 145.5,35.5 C 144.5,37.1667 143.167,38.5 141.5,39.5C 141.833,37.1667 143.167,35.8333 145.5,35.5 Z"/></g>
<g><path style="opacity:1" fill="#ffffff" d="M 772.5,36.5 C 770.708,37.3091 768.708,37.8091 766.5,38C 759.842,38.4996 753.175,38.6663 746.5,38.5C 755.206,37.4152 763.873,36.7486 772.5,36.5 Z"/></g>
<g><path style="opacity:1" fill="#ffffff" d="M 788.5,31.5 C 789.494,33.3344 789.494,35.0011 788.5,36.5C 788.631,35.7611 788.464,35.0944 788,34.5C 783.069,40.0491 776.902,43.0491 769.5,43.5C 771.663,42.5309 773.996,41.6976 776.5,41C 775.944,40.6174 775.611,40.1174 775.5,39.5C 780.299,37.7243 784.632,35.0576 788.5,31.5 Z"/></g>
<g><path style="opacity:1" fill="#ffffff" d="M 722.5,26.5 C 722.09,32.6208 722.59,38.6208 724,44.5C 722.801,41.2251 723.634,38.5584 726.5,36.5C 726.833,37.8333 727.167,37.8333 727.5,36.5C 728.167,36.5 728.5,36.1667 728.5,35.5C 729.167,35.5 729.833,35.5 730.5,35.5C 728.862,36.7046 728.529,38.0379 729.5,39.5C 727.748,41.2459 726.415,43.2459 725.5,45.5C 724.833,45.5 724.5,45.8333 724.5,46.5C 723.778,46.9175 723.278,47.5842 723,48.5C 722.601,48.2716 722.435,47.9382 722.5,47.5C 721.223,40.3709 721.223,33.3709 722.5,26.5 Z"/></g>
<g><path style="opacity:1" fill="#ffffff" d="M 788.5,36.5 C 788.5,37.1667 788.5,37.8333 788.5,38.5C 784.236,42.4665 779.236,45.1332 773.5,46.5C 761.856,47.6522 750.189,48.6522 738.5,49.5C 735.351,49.4152 732.684,50.4152 730.5,52.5C 729.761,52.631 729.094,52.4643 728.5,52C 729.71,50.9609 730.71,49.7942 731.5,48.5C 734.282,47.067 737.282,45.9003 740.5,45C 750.126,43.7559 759.792,43.2559 769.5,43.5C 776.902,43.0491 783.069,40.0491 788,34.5C 788.464,35.0944 788.631,35.7611 788.5,36.5 Z"/></g>
<g><path style="opacity:1" fill="#ffffff" d="M 241.5,42.5 C 237.612,40.5241 233.612,40.1908 229.5,41.5C 230.777,40.1024 232.443,39.4357 234.5,39.5C 237.36,39.555 239.693,40.555 241.5,42.5 Z"/></g>
<g><path style="opacity:1" fill="#ffffff" d="M 173.5,38.5 C 174.906,38.9731 175.573,39.9731 175.5,41.5C 174.094,41.0269 173.427,40.0269 173.5,38.5 Z"/></g>
<g><path style="opacity:1" fill="#ffffff" d="M 295.5,38.5 C 296.906,38.9731 297.573,39.9731 297.5,41.5C 296.094,41.0269 295.427,40.0269 295.5,38.5 Z"/></g>
<g><path style="opacity:1" fill="#ffffff" d="M 378.5,40.5 C 379.906,40.9731 380.573,41.9731 380.5,43.5C 379.094,43.0269 378.427,42.0269 378.5,40.5 Z"/></g>
<g><path style="opacity:1" fill="#ffffff" d="M 647.5,43.5 C 648.097,42.8614 648.93,42.528 650,42.5C 653.336,43.9729 656.836,44.6395 660.5,44.5C 659.551,45.1524 658.385,45.4857 657,45.5C 653.8,44.9317 650.633,44.2651 647.5,43.5 Z"/></g>
<g><path style="opacity:1" fill="#ffffff" d="M 732.5,41.5 C 732.389,42.1174 732.056,42.6174 731.5,43C 732.793,43.49 734.127,43.6567 735.5,43.5C 732.595,44.6279 729.928,46.2946 727.5,48.5C 726.494,49.3957 726.494,50.0623 727.5,50.5C 728.622,49.3698 729.956,48.7031 731.5,48.5C 730.71,49.7942 729.71,50.9609 728.5,52C 729.094,52.4643 729.761,52.631 730.5,52.5C 729.77,53.7124 728.77,54.7124 727.5,55.5C 728.7,56.2916 730.033,56.2916 731.5,55.5C 730.313,57.9754 728.313,58.9754 725.5,58.5C 725.421,57.0695 725.754,55.7362 726.5,54.5C 726.167,54.1667 725.833,53.8333 725.5,53.5C 724.818,54.2427 724.151,54.9094 723.5,55.5C 722.876,55.0831 722.543,54.4164 722.5,53.5C 723.237,51.0297 724.237,48.6964 725.5,46.5C 725.5,46.1667 725.5,45.8333 725.5,45.5C 727.372,43.3963 729.705,42.063 732.5,41.5 Z"/></g>
<g><path style="opacity:1" fill="#ffffff" d="M 466.5,37.5 C 468.441,41.0687 468.774,44.7353 467.5,48.5C 467.276,44.8212 466.942,41.1545 466.5,37.5 Z"/></g>
<g><path style="opacity:1" fill="#ffffff" d="M 788.5,38.5 C 789.494,40.3344 789.494,42.0011 788.5,43.5C 788.631,42.7611 788.464,42.0944 788,41.5C 783.957,46.3474 778.791,49.014 772.5,49.5C 772.918,48.7784 773.584,48.2784 774.5,48C 773.944,47.6174 773.611,47.1174 773.5,46.5C 779.236,45.1332 784.236,42.4665 788.5,38.5 Z"/></g>
<g><path style="opacity:1" fill="#ffffff" d="M 788.5,43.5 C 786.767,47.5649 783.767,50.2316 779.5,51.5C 777.448,52.0527 777.115,53.0527 778.5,54.5C 783.423,65.2695 787.756,76.2695 791.5,87.5C 787.445,87.8242 783.445,87.4909 779.5,86.5C 778.873,85.5832 778.539,84.5832 778.5,83.5C 778.67,82.1779 778.337,81.0113 777.5,80C 772.316,79.1837 767.316,79.3503 762.5,80.5C 762.171,82.9908 761.171,85.1575 759.5,87C 755.848,87.4986 752.182,87.6653 748.5,87.5C 751.4,77.7865 755.067,68.4532 759.5,59.5C 761.043,58.2642 762.043,56.5976 762.5,54.5C 760.027,53.2031 757.693,53.2031 755.5,54.5C 755.923,59.0485 755.423,63.7152 754,68.5C 750.377,73.3949 745.544,75.7283 739.5,75.5C 737.167,75.5 734.833,75.5 732.5,75.5C 732.5,79.1667 732.5,82.8333 732.5,86.5C 729.167,87.8333 725.833,87.8333 722.5,86.5C 722.448,76.0088 722.782,65.6754 723.5,55.5C 724.151,54.9094 724.818,54.2427 725.5,53.5C 725.833,53.8333 726.167,54.1667 726.5,54.5C 725.754,55.7362 725.421,57.0695 725.5,58.5C 728.313,58.9754 730.313,57.9754 731.5,55.5C 733.684,53.4152 736.351,52.4152 739.5,52.5C 747.339,52.1178 755.005,51.4512 762.5,50.5C 765.728,49.5863 769.061,49.2529 772.5,49.5C 778.791,49.014 783.957,46.3474 788,41.5C 788.464,42.0944 788.631,42.7611 788.5,43.5 Z M 740.5,57.5 C 743.254,59.0528 744.087,61.3861 743,64.5C 740.096,66.2268 736.93,66.8935 733.5,66.5C 733.336,63.8127 733.503,61.146 734,58.5C 736.041,57.5769 738.208,57.2436 740.5,57.5 Z M 769.5,62.5 C 770.787,65.0748 772.121,67.7415 773.5,70.5C 773.167,70.8333 772.833,71.1667 772.5,71.5C 770.244,71.651 768.244,71.3176 766.5,70.5C 767.513,67.8122 768.513,65.1456 769.5,62.5 Z"/></g>
<g><path style="opacity:1" fill="#ffffff" d="M 427.5,36.5 C 426.508,41.4516 425.842,46.4516 425.5,51.5C 424.366,49.0336 424.199,46.367 425,43.5C 425.156,40.8091 425.989,38.4758 427.5,36.5 Z"/></g>
<g><path style="opacity:1" fill="#ffffff" d="M 623.5,86.5 C 617.464,86.6401 611.464,86.3068 605.5,85.5C 602.345,85.0158 600.012,83.3491 598.5,80.5C 599.521,78.812 600.855,77.4787 602.5,76.5C 604.756,75.5615 607.09,75.5615 609.5,76.5C 609.611,77.1174 609.944,77.6174 610.5,78C 612.473,78.4955 614.473,78.6621 616.5,78.5C 616.833,78.5 617.167,78.5 617.5,78.5C 618.833,78.5 620.167,78.5 621.5,78.5C 622.575,74.062 620.908,72.062 616.5,72.5C 601.903,71.7651 597.403,64.7651 603,51.5C 606.737,48.3665 611.07,47.0331 616,47.5C 621.442,47.2768 626.442,48.6102 631,51.5C 630.75,55.3128 628.916,58.3128 625.5,60.5C 622.382,58.607 619.049,57.2736 615.5,56.5C 612.847,57.285 612.18,58.785 613.5,61C 618.764,61.8987 623.764,63.5654 628.5,66C 633.244,71.3777 633.744,77.211 630,83.5C 628.13,85.2189 625.963,86.2189 623.5,86.5 Z"/></g>
<g><path style="opacity:1" fill="#ffffff" d="M 671.5,74.5 C 671.5,69.8333 671.5,65.1667 671.5,60.5C 672.063,57.7052 673.396,55.3718 675.5,53.5C 677.027,53.573 678.027,52.9063 678.5,51.5C 679.058,50.2101 680.058,49.3768 681.5,49C 689.472,45.5691 697.139,46.2358 704.5,51C 715.167,62 715.167,73 704.5,84C 696.385,88.2684 688.052,88.6017 679.5,85C 675.857,82.197 673.19,78.697 671.5,74.5 Z M 695.5,76.5 C 692.833,77.8333 690.167,77.8333 687.5,76.5C 680.028,71.0997 679.694,65.2664 686.5,59C 697.001,56.4972 701.501,60.6639 700,71.5C 698.975,73.687 697.475,75.3536 695.5,76.5 Z"/></g>
<g><path style="opacity:1" fill="#ffffff" d="M 897.5,60.5 C 897.608,65.8699 897.275,71.2032 896.5,76.5C 893.901,82.1002 889.568,85.4335 883.5,86.5C 878.463,86.5874 873.463,86.254 868.5,85.5C 857.488,79.6583 853.988,70.6583 858,58.5C 866.858,45.8841 878.024,43.3841 891.5,51C 894.147,53.8012 896.147,56.9679 897.5,60.5 Z M 879.5,57.5 C 887.772,61.9251 889.106,67.9251 883.5,75.5C 880.236,76.3242 876.902,76.6576 873.5,76.5C 866.845,70.4576 866.845,64.4576 873.5,58.5C 875.379,57.6586 877.379,57.3253 879.5,57.5 Z"/></g>
<g><path style="opacity:1" fill="#ffffff" d="M 272.5,44.5 C 271.646,50.1209 271.313,55.7876 271.5,61.5C 270.35,56.6842 270.184,51.6842 271,46.5C 271.278,45.5842 271.778,44.9175 272.5,44.5 Z"/></g>
<g><path style="opacity:1" fill="#ffffff" d="M 288.5,45.5 C 289.404,46.209 289.737,47.209 289.5,48.5C 292.5,48.5 295.5,48.5 298.5,48.5C 298.5,47.5 298.5,46.5 298.5,45.5C 299.434,46.5676 299.768,47.901 299.5,49.5C 295.833,49.5 292.167,49.5 288.5,49.5C 288.5,48.1667 288.5,46.8333 288.5,45.5 Z"/></g>
<g><path style="opacity:1" fill="#ffffff" d="M 499.5,48.5 C 502.152,48.4095 504.485,49.0762 506.5,50.5C 503.848,50.5905 501.515,49.9238 499.5,48.5 Z"/></g>
<g><path style="opacity:1" fill="#ffffff" d="M 646.5,47.5 C 650.555,47.1758 654.555,47.5091 658.5,48.5C 663.704,61.0731 669.038,73.5731 674.5,86C 670.691,87.5882 666.691,87.9216 662.5,87C 661.308,85.0876 660.308,83.0876 659.5,81C 654.833,80.3333 650.167,80.3333 645.5,81C 644.692,83.0876 643.692,85.0876 642.5,87C 638.309,87.9216 634.309,87.5882 630.5,86C 636.251,73.3322 641.584,60.4989 646.5,47.5 Z M 651.5,63.5 C 652.167,63.5 652.833,63.5 653.5,63.5C 653.402,65.5529 654.069,67.2196 655.5,68.5C 655.03,69.6935 654.03,70.3601 652.5,70.5C 651.274,70.4805 650.274,70.1471 649.5,69.5C 650.73,67.7028 651.396,65.7028 651.5,63.5 Z"/></g>
<g><path style="opacity:1" fill="#ffffff" d="M 803.5,76.5 C 805.966,77.6341 808.633,77.8007 811.5,77C 812.823,76.1841 813.489,75.0174 813.5,73.5C 813.5,64.8333 813.5,56.1667 813.5,47.5C 817.5,47.5 821.5,47.5 825.5,47.5C 825.666,56.5062 825.5,65.5062 825,74.5C 823.649,81.0154 819.816,85.0154 813.5,86.5C 808.13,86.6079 802.797,86.2745 797.5,85.5C 797.027,84.0937 796.027,83.427 794.5,83.5C 791.294,81.436 789.461,78.436 789,74.5C 788.5,65.5062 788.334,56.5062 788.5,47.5C 792.5,47.5 796.5,47.5 800.5,47.5C 800.334,55.84 800.5,64.1733 801,72.5C 801.662,73.9839 802.496,75.3172 803.5,76.5 Z"/></g>
<g><path style="opacity:1" fill="#ffffff" d="M 856.5,77.5 C 857.833,80.5 857.833,83.5 856.5,86.5C 847.167,86.5 837.833,86.5 828.5,86.5C 828.5,73.8333 828.5,61.1667 828.5,48.5C 831.5,48.5 834.5,48.5 837.5,48.5C 837.5,58.1667 837.5,67.8333 837.5,77.5C 843.833,77.5 850.167,77.5 856.5,77.5 Z"/></g>
<g><path style="opacity:1" fill="#ffffff" d="M 130.5,41.5 C 131.479,44.6248 131.813,47.9581 131.5,51.5C 122.833,51.5 114.167,51.5 105.5,51.5C 113.433,49.5316 121.766,48.865 130.5,49.5C 130.5,46.8333 130.5,44.1667 130.5,41.5 Z"/></g>
<g><path style="opacity:1" fill="#ffffff" d="M 198.5,41.5 C 198.269,49.2089 198.602,56.8756 199.5,64.5C 198.778,64.0825 198.278,63.4158 198,62.5C 197.179,55.3209 197.345,48.3209 198.5,41.5 Z"/></g>
<g><path style="opacity:1" fill="#ffffff" d="M 217.5,41.5 C 216.635,49.4659 216.302,57.4659 216.5,65.5C 215.345,58.6791 215.179,51.6791 216,44.5C 216.232,43.2625 216.732,42.2625 217.5,41.5 Z"/></g>
<g><path style="opacity:1" fill="#ffffff" d="M 738.5,49.5 C 736.11,51.0198 733.443,52.0198 730.5,52.5C 732.684,50.4152 735.351,49.4152 738.5,49.5 Z"/></g>
<g><path style="opacity:1" fill="#ffffff" d="M 166.5,45.5 C 167.461,47.2646 167.795,49.2646 167.5,51.5C 160.138,51.3646 152.804,51.6979 145.5,52.5C 146.609,51.71 147.942,51.21 149.5,51C 155.157,50.5006 160.824,50.3339 166.5,50.5C 166.5,48.8333 166.5,47.1667 166.5,45.5 Z"/></g>
<g><path style="opacity:1" fill="#ffffff" d="M 243.5,45.5 C 244.461,47.2646 244.795,49.2646 244.5,51.5C 237.833,51.5 231.167,51.5 224.5,51.5C 224.216,49.5853 224.549,47.9187 225.5,46.5C 225.5,47.8333 225.5,49.1667 225.5,50.5C 231.5,50.5 237.5,50.5 243.5,50.5C 243.5,48.8333 243.5,47.1667 243.5,45.5 Z"/></g>
<g><path style="opacity:1" fill="#ffffff" d="M 506.5,50.5 C 509.01,50.0535 511.01,50.7202 512.5,52.5C 510.214,52.405 508.214,51.7384 506.5,50.5 Z"/></g>
<g><path style="opacity:1" fill="#ffffff" d="M 762.5,50.5 C 755.005,51.4512 747.339,52.1178 739.5,52.5C 746.923,50.7454 754.589,50.0787 762.5,50.5 Z"/></g>
<g><path style="opacity:1" fill="#ffffff" d="M 389.5,50.5 C 397.132,51.3577 404.799,51.6911 412.5,51.5C 406.013,52.654 399.346,52.8206 392.5,52C 391.263,51.7679 390.263,51.2679 389.5,50.5 Z"/></g>
<g><path style="opacity:1" fill="#ffffff" d="M 425.5,51.5 C 433.167,51.5 440.833,51.5 448.5,51.5C 448.817,55.7016 448.483,59.7016 447.5,63.5C 447.5,59.8333 447.5,56.1667 447.5,52.5C 439.981,52.825 432.648,52.4916 425.5,51.5 Z"/></g>
<g><path style="opacity:1" fill="#ffffff" d="M 779.5,51.5 C 778.89,52.391 778.557,53.391 778.5,54.5C 777.115,53.0527 777.448,52.0527 779.5,51.5 Z"/></g>
<g><path style="opacity:1" fill="#ffffff" d="M 512.5,52.5 C 514.698,52.1201 516.365,52.7868 517.5,54.5C 515.597,54.2041 513.93,53.5375 512.5,52.5 Z"/></g>
<g><path style="opacity:1" fill="#ffffff" d="M 678.5,51.5 C 678.027,52.9063 677.027,53.573 675.5,53.5C 675.973,52.0937 676.973,51.427 678.5,51.5 Z"/></g>
<g><path style="opacity:1" fill="#ffffff" d="M 755.5,54.5 C 757.693,53.2031 760.027,53.2031 762.5,54.5C 762.043,56.5976 761.043,58.2642 759.5,59.5C 760.038,57.8828 760.371,56.2161 760.5,54.5C 758.833,54.5 757.167,54.5 755.5,54.5 Z"/></g>
<g><path style="opacity:1" fill="#ffffff" d="M 97.5,15.5 C 95.5306,35.2666 94.8639,55.2666 95.5,75.5C 98.8333,75.5 102.167,75.5 105.5,75.5C 102.038,76.4816 98.3714,76.815 94.5,76.5C 94.3334,56.1639 94.5,35.8306 95,15.5C 95.7697,14.4019 96.603,14.4019 97.5,15.5 Z"/></g>
<g><path style="opacity:1" fill="#ffffff" d="M 252.5,45.5 C 253.483,49.2984 253.817,53.2984 253.5,57.5C 244.167,57.5 234.833,57.5 225.5,57.5C 234.318,56.5067 243.318,56.1734 252.5,56.5C 252.5,52.8333 252.5,49.1667 252.5,45.5 Z"/></g>
<g><path style="opacity:1" fill="#ffffff" d="M 879.5,57.5 C 877.379,57.3253 875.379,57.6586 873.5,58.5C 873.97,57.3065 874.97,56.6399 876.5,56.5C 877.726,56.5195 878.726,56.8529 879.5,57.5 Z"/></g>
<g><path style="opacity:1" fill="#ffffff" d="M 141.5,55.5 C 141.573,57.0269 140.906,58.0269 139.5,58.5C 139.427,56.9731 140.094,55.9731 141.5,55.5 Z"/></g>
<g><path style="opacity:1" fill="#ffffff" d="M 740.5,57.5 C 738.208,57.2436 736.041,57.5769 734,58.5C 733.503,61.146 733.336,63.8127 733.5,66.5C 732.362,63.6965 732.195,60.6965 733,57.5C 735.605,56.1857 738.105,56.1857 740.5,57.5 Z"/></g>
<g><path style="opacity:1" fill="#ffffff" d="M 166.5,58.5 C 167.613,59.9464 167.78,61.6131 167,63.5C 166.329,64.2524 165.496,64.5858 164.5,64.5C 166.081,62.8583 166.747,60.8583 166.5,58.5 Z"/></g>
<g><path style="opacity:1" fill="#ffffff" d="M 297.5,66.5 C 297.5,64.5 297.5,62.5 297.5,60.5C 294.833,60.5 292.167,60.5 289.5,60.5C 289.768,62.099 289.434,63.4324 288.5,64.5C 288.261,62.5328 288.594,60.6995 289.5,59C 292.5,58.3333 295.5,58.3333 298.5,59C 299.691,61.7259 299.358,64.2259 297.5,66.5 Z"/></g>
<g><path style="opacity:1" fill="#ffffff" d="M 478.5,56.5 C 478.539,59.089 477.539,61.089 475.5,62.5C 475.992,60.1815 476.992,58.1815 478.5,56.5 Z"/></g>
<g><path style="opacity:1" fill="#ffffff" d="M 380.5,59.5 C 382.027,59.427 383.027,60.0937 383.5,61.5C 381.973,61.573 380.973,60.9063 380.5,59.5 Z"/></g>
<g><path style="opacity:1" fill="#ffffff" d="M 252.5,65.5 C 252.5,64.5 252.5,63.5 252.5,62.5C 249.145,62.0914 246.145,62.7581 243.5,64.5C 243.5,63.5 243.5,62.5 243.5,61.5C 246.833,61.5 250.167,61.5 253.5,61.5C 253.768,63.099 253.434,64.4324 252.5,65.5 Z"/></g>
<g><path style="opacity:1" fill="#ffffff" d="M 464.5,57.5 C 463.5,60.5 461.5,62.5 458.5,63.5C 460.167,61.1667 462.167,59.1667 464.5,57.5 Z"/></g>
<g><path style="opacity:1" fill="#ffffff" d="M 149.5,60.5 C 148.314,62.7922 148.314,65.1256 149.5,67.5C 148.007,66.6879 147.34,65.3545 147.5,63.5C 147.64,61.9704 148.307,60.9704 149.5,60.5 Z"/></g>
<g><path style="opacity:1" fill="#ffffff" d="M 653.5,63.5 C 652.833,63.5 652.167,63.5 651.5,63.5C 652.167,60.8333 652.833,60.8333 653.5,63.5 Z"/></g>
<g><path style="opacity:1" fill="#ffffff" d="M 897.5,60.5 C 898.163,62.4726 898.496,64.6392 898.5,67C 898.672,70.4774 898.006,73.644 896.5,76.5C 897.275,71.2032 897.608,65.8699 897.5,60.5 Z"/></g>
<g><path style="opacity:1" fill="#ffffff" d="M 447.5,63.5 C 440.352,64.4916 433.019,64.825 425.5,64.5C 425.5,80.1667 425.5,95.8333 425.5,111.5C 421.298,111.817 417.298,111.483 413.5,110.5C 417.167,110.5 420.833,110.5 424.5,110.5C 424.5,94.8333 424.5,79.1667 424.5,63.5C 432.167,63.5 439.833,63.5 447.5,63.5 Z"/></g>
<g><path style="opacity:1" fill="#ffffff" d="M 474.5,64.5 C 488.323,65.4958 502.323,65.8291 516.5,65.5C 502.328,66.8259 487.994,66.8259 473.5,65.5C 473.624,64.8933 473.957,64.56 474.5,64.5 Z"/></g>
<g><path style="opacity:1" fill="#ffffff" d="M 653.5,63.5 C 654.931,64.7804 655.598,66.4471 655.5,68.5C 654.069,67.2196 653.402,65.5529 653.5,63.5 Z"/></g>
<g><path style="opacity:1" fill="#ffffff" d="M 671.5,60.5 C 671.5,65.1667 671.5,69.8333 671.5,74.5C 668.833,69.8333 668.833,65.1667 671.5,60.5 Z"/></g>
<g><path style="opacity:1" fill="#ffffff" d="M 655.5,68.5 C 656.404,69.209 656.737,70.209 656.5,71.5C 653.753,71.8134 651.086,71.48 648.5,70.5C 648.624,69.8933 648.957,69.56 649.5,69.5C 650.274,70.1471 651.274,70.4805 652.5,70.5C 654.03,70.3601 655.03,69.6935 655.5,68.5 Z"/></g>
<g><path style="opacity:1" fill="#ffffff" d="M 856.5,77.5 C 850.167,77.5 843.833,77.5 837.5,77.5C 837.5,67.8333 837.5,58.1667 837.5,48.5C 834.5,48.5 831.5,48.5 828.5,48.5C 828.5,61.1667 828.5,73.8333 828.5,86.5C 837.833,86.5 847.167,86.5 856.5,86.5C 846.765,87.8286 836.931,87.8286 827,86.5C 826.5,73.5043 826.333,60.5043 826.5,47.5C 830.5,47.5 834.5,47.5 838.5,47.5C 838.5,57.1667 838.5,66.8333 838.5,76.5C 844.69,76.1771 850.69,76.5104 856.5,77.5 Z"/></g>
<g><path style="opacity:1" fill="#ffffff" d="M 616.5,72.5 C 620.908,72.062 622.575,74.062 621.5,78.5C 620.167,78.5 618.833,78.5 617.5,78.5C 618.209,77.596 619.209,77.2627 620.5,77.5C 620.592,74.6 619.259,72.9333 616.5,72.5 Z"/></g>
<g><path style="opacity:1" fill="#ffffff" d="M 609.5,76.5 C 607.09,75.5615 604.756,75.5615 602.5,76.5C 602.415,75.0047 603.081,74.0047 604.5,73.5C 606.396,74.2745 608.063,75.2745 609.5,76.5 Z"/></g>
<g><path style="opacity:1" fill="#ffffff" d="M 724.5,46.5 C 724.833,46.5 725.167,46.5 725.5,46.5C 724.237,48.6964 723.237,51.0297 722.5,53.5C 722.543,54.4164 722.876,55.0831 723.5,55.5C 722.782,65.6754 722.448,76.0088 722.5,86.5C 721.167,73.5 721.167,60.5 722.5,47.5C 722.435,47.9382 722.601,48.2716 723,48.5C 723.278,47.5842 723.778,46.9175 724.5,46.5 Z"/></g>
<g><path style="opacity:1" fill="#ffffff" d="M 165.5,71.5 C 165.56,70.9569 165.893,70.6236 166.5,70.5C 167.452,72.0453 167.785,73.712 167.5,75.5C 170.5,75.5 173.5,75.5 176.5,75.5C 173.375,76.4794 170.042,76.8128 166.5,76.5C 166.784,74.5853 166.451,72.9187 165.5,71.5 Z"/></g>
<g><path style="opacity:1" fill="#ffffff" d="M 224.5,74.5 C 231.174,75.7832 237.841,75.7832 244.5,74.5C 237.853,78.4907 231.187,78.4907 224.5,74.5 Z"/></g>
<g><path style="opacity:1" fill="#ffffff" d="M 270.5,74.5 C 276.13,75.2919 281.797,75.6252 287.5,75.5C 281.73,78.0374 276.064,77.704 270.5,74.5 Z"/></g>
<g><path style="opacity:1" fill="#ffffff" d="M 739.5,75.5 C 737.735,76.4614 735.735,76.7947 733.5,76.5C 733.813,80.0419 733.479,83.3752 732.5,86.5C 732.5,82.8333 732.5,79.1667 732.5,75.5C 734.833,75.5 737.167,75.5 739.5,75.5 Z"/></g>
<g><path style="opacity:1" fill="#ffffff" d="M 813.5,73.5 C 813.489,75.0174 812.823,76.1841 811.5,77C 808.633,77.8007 805.966,77.6341 803.5,76.5C 807.433,77.1426 810.766,76.1426 813.5,73.5 Z"/></g>
<g><path style="opacity:1" fill="#ffffff" d="M 883.5,75.5 C 883.389,76.1174 883.056,76.6174 882.5,77C 879.304,77.8045 876.304,77.6378 873.5,76.5C 876.902,76.6576 880.236,76.3242 883.5,75.5 Z"/></g>
<g><path style="opacity:1" fill="#ffffff" d="M 609.5,76.5 C 612.01,76.9267 614.343,77.5933 616.5,78.5C 614.473,78.6621 612.473,78.4955 610.5,78C 609.944,77.6174 609.611,77.1174 609.5,76.5 Z"/></g>
<g><path style="opacity:1" fill="#ffffff" d="M 687.5,76.5 C 690.167,77.8333 692.833,77.8333 695.5,76.5C 694.688,77.9931 693.355,78.6598 691.5,78.5C 689.645,78.6598 688.312,77.9931 687.5,76.5 Z"/></g>
<g><path style="opacity:1" fill="#ffffff" d="M 394.5,63.5 C 400.833,63.5 407.167,63.5 413.5,63.5C 413.5,79.1667 413.5,94.8333 413.5,110.5C 412.504,95.3424 412.17,80.0091 412.5,64.5C 406.31,64.8229 400.31,64.4896 394.5,63.5 Z"/></g>
<g><path style="opacity:1" fill="#ffffff" d="M 762.5,80.5 C 767.316,79.3503 772.316,79.1837 777.5,80C 778.337,81.0113 778.67,82.1779 778.5,83.5C 777.733,82.828 777.066,81.9947 776.5,81C 771.845,80.5008 767.179,80.3342 762.5,80.5 Z"/></g>
<g><path style="opacity:1" fill="#ffffff" d="M 794.5,83.5 C 796.027,83.427 797.027,84.0937 797.5,85.5C 795.973,85.573 794.973,84.9063 794.5,83.5 Z"/></g>
<g><path style="opacity:1" fill="#ffffff" d="M 239.5,84.5 C 245.781,83.1233 249.448,85.4566 250.5,91.5C 247.685,91.1081 245.185,90.1081 243,88.5C 241.893,88.5852 240.893,88.9186 240,89.5C 239.333,92.5 239.333,95.5 240,98.5C 241.699,99.4061 243.533,99.7394 245.5,99.5C 244.833,97.5 244.167,95.5 243.5,93.5C 251.094,93.2623 252.427,96.0956 247.5,102C 242.958,104.358 239.124,103.525 236,99.5C 235.333,95.5 235.333,91.5 236,87.5C 237.145,86.3636 238.312,85.3636 239.5,84.5 Z"/></g>
<g><path style="opacity:1" fill="#ffffff" d="M 605.5,85.5 C 611.464,86.3068 617.464,86.6401 623.5,86.5C 621.19,87.1638 618.69,87.4971 616,87.5C 612.195,87.6963 608.695,87.0296 605.5,85.5 Z"/></g>
<g><path style="opacity:1" fill="#ffffff" d="M 797.5,85.5 C 802.797,86.2745 808.13,86.6079 813.5,86.5C 811.527,87.1627 809.361,87.4961 807,87.5C 803.523,87.6725 800.356,87.0058 797.5,85.5 Z"/></g>
<g><path style="opacity:1" fill="#ffffff" d="M 868.5,85.5 C 873.463,86.254 878.463,86.5874 883.5,86.5C 881.696,87.162 879.696,87.4954 877.5,87.5C 874.186,87.6575 871.186,86.9908 868.5,85.5 Z"/></g>
<g><path style="opacity:1" fill="#ffffff" d="M 458.5,85.5 C 460.776,85.6682 463.109,86.0015 465.5,86.5C 467.129,89.2659 467.795,92.2659 467.5,95.5C 466.5,95.5 465.5,95.5 464.5,95.5C 464.5,93.1667 464.5,90.8333 464.5,88.5C 463.167,88.5 461.833,88.5 460.5,88.5C 460.808,90.924 460.474,93.2573 459.5,95.5C 458.199,92.1096 457.866,88.7763 458.5,85.5 Z"/></g>
<g><path style="opacity:1" fill="#ffffff" d="M 469.5,83.5 C 471.213,84.305 472.879,85.305 474.5,86.5C 470.5,89.1667 470.5,91.8333 474.5,94.5C 472.994,95.7472 471.494,95.7472 470,94.5C 469.955,91.666 469.121,89.166 467.5,87C 468.823,86.1841 469.489,85.0174 469.5,83.5 Z"/></g>
<g><path style="opacity:1" fill="#ffffff" d="M 269.5,94.5 C 268.835,96.6979 268.168,99.0312 267.5,101.5C 266.511,97.8927 266.177,94.226 266.5,90.5C 268.035,91.3543 269.368,91.3543 270.5,90.5C 272.879,89.4331 273.879,90.4331 273.5,93.5C 272.041,93.4326 270.708,93.7659 269.5,94.5 Z"/></g>
<g><path style="opacity:1" fill="#ffffff" d="M 266.5,90.5 C 267.705,89.3143 269.039,89.3143 270.5,90.5C 269.368,91.3543 268.035,91.3543 266.5,90.5 Z"/></g>
<g><path style="opacity:1" fill="#ffffff" d="M 298.5,92.5 C 298.5,95.5 298.5,98.5 298.5,101.5C 295.167,101.5 291.833,101.5 288.5,101.5C 287.28,99.9504 287.28,98.2837 288.5,96.5C 290.952,95.9346 293.285,95.2679 295.5,94.5C 294.597,92.3796 293.263,92.0462 291.5,93.5C 290.609,94.1098 289.609,94.4431 288.5,94.5C 287.957,94.44 287.624,94.1067 287.5,93.5C 290.888,88.6515 294.554,88.3182 298.5,92.5 Z M 295.5,94.5 C 293.901,94.7678 292.568,94.4345 291.5,93.5C 293.263,92.0462 294.597,92.3796 295.5,94.5 Z M 291.5,97.5 C 292.873,97.3433 294.207,97.51 295.5,98C 294.944,98.3826 294.611,98.8826 294.5,99.5C 292.821,99.7148 291.821,99.0481 291.5,97.5 Z"/></g>
<g><path style="opacity:1" fill="#ffffff" d="M 450.5,85.5 C 454.697,85.1937 456.697,87.1937 456.5,91.5C 449.338,91.6128 449.005,92.6128 455.5,94.5C 449.033,96.535 446.533,94.2016 448,87.5C 448.995,86.9341 449.828,86.2674 450.5,85.5 Z M 451.5,87.5 C 454.137,89.1538 453.803,89.6538 450.5,89C 451.056,88.6174 451.389,88.1174 451.5,87.5 Z"/></g>
<g><path style="opacity:1" fill="#ffffff" d="M 481.5,87.5 C 488.164,83.9994 491.33,85.9994 491,93.5C 484.165,97.4863 480.998,95.4863 481.5,87.5 Z M 485.5,87.5 C 487.484,87.484 488.484,88.484 488.5,90.5C 487.405,94.3226 485.738,94.4893 483.5,91C 484.305,89.8873 484.972,88.7206 485.5,87.5 Z"/></g>
<g><path style="opacity:1" fill="#ffffff" d="M 261.5,90.5 C 262.683,94.1586 262.683,97.8253 261.5,101.5C 260.478,101.145 259.811,100.478 259.5,99.5C 258.335,96.9781 257.002,96.9781 255.5,99.5C 256.263,100.268 257.263,100.768 258.5,101C 256.866,101.494 255.199,101.66 253.5,101.5C 250.833,99.8333 250.833,98.1667 253.5,96.5C 255.823,95.9416 258.157,95.2749 260.5,94.5C 260.376,93.8933 260.043,93.56 259.5,93.5C 257.872,92.1472 256.538,92.4805 255.5,94.5C 254.833,94.5 254.167,94.5 253.5,94.5C 252.209,93.4583 252.209,92.2917 253.5,91C 256.119,89.3037 258.786,89.137 261.5,90.5 Z M 259.5,93.5 C 258.432,94.4345 257.099,94.7678 255.5,94.5C 256.538,92.4805 257.872,92.1472 259.5,93.5 Z M 259.5,99.5 C 258.167,99.5 256.833,99.5 255.5,99.5C 257.002,96.9781 258.335,96.9781 259.5,99.5 Z"/></g>
<g><path style="opacity:1" fill="#ffffff" d="M 278.5,99.5 C 280.531,99.9724 282.198,100.972 283.5,102.5C 283.167,102.5 282.833,102.5 282.5,102.5C 281.849,103.091 281.182,103.757 280.5,104.5C 279.395,102.389 277.729,101.055 275.5,100.5C 272.486,93.3989 274.819,89.8989 282.5,90C 285.384,91.0374 286.05,92.8707 284.5,95.5C 279.454,91.1695 277.454,92.5028 278.5,99.5 Z"/></g>
<g><path style="opacity:1" fill="#ffffff" d="M 481.5,87.5 C 480.609,88.1098 479.609,88.4431 478.5,88.5C 478.5,90.8333 478.5,93.1667 478.5,95.5C 477.5,95.5 476.5,95.5 475.5,95.5C 475.18,92.1016 475.513,88.7683 476.5,85.5C 477.5,86.8333 478.5,86.8333 479.5,85.5C 480.522,85.8555 481.189,86.5222 481.5,87.5 Z"/></g>
<g><path style="opacity:1" fill="#ffffff" d="M 478.5,88.5 C 477.691,90.2922 477.191,92.2922 477,94.5C 476.186,92.0982 476.353,89.7649 477.5,87.5C 478.107,87.6236 478.44,87.9569 478.5,88.5 Z"/></g>
<g><path style="opacity:1" fill="#ffffff" d="M 633.5,92.5 C 630.098,92.3424 626.764,92.6758 623.5,93.5C 623.611,92.8826 623.944,92.3826 624.5,92C 627.696,91.1955 630.696,91.3622 633.5,92.5 Z"/></g>
<g><path style="opacity:1" fill="#ffffff" d="M 644.5,92.5 C 642.585,92.2155 640.919,92.5489 639.5,93.5C 638.957,93.44 638.624,93.1067 638.5,92.5C 640.636,91.2072 642.636,91.2072 644.5,92.5 Z"/></g>
<g><path style="opacity:1" fill="#ffffff" d="M 653.5,92.5 C 655.035,91.2121 656.701,91.2121 658.5,92.5C 658.376,93.1067 658.043,93.44 657.5,93.5C 656.432,92.5655 655.099,92.2322 653.5,92.5 Z"/></g>
<g><path style="opacity:1" fill="#ffffff" d="M 660.5,92.5 C 665.305,91.5128 670.305,91.1795 675.5,91.5C 675.768,93.099 675.434,94.4324 674.5,95.5C 674.5,94.5 674.5,93.5 674.5,92.5C 669.833,92.5 665.167,92.5 660.5,92.5 Z"/></g>
<g><path style="opacity:1" fill="#ffffff" d="M 729.5,92.5 C 726.098,92.3424 722.764,92.6758 719.5,93.5C 719.611,92.8826 719.944,92.3826 720.5,92C 723.696,91.1955 726.696,91.3622 729.5,92.5 Z"/></g>
<g><path style="opacity:1" fill="#ffffff" d="M 818.5,92.5 C 815.098,92.3424 811.764,92.6758 808.5,93.5C 808.611,92.8826 808.944,92.3826 809.5,92C 812.696,91.1955 815.696,91.3622 818.5,92.5 Z"/></g>
<g><path style="opacity:1" fill="#ffffff" d="M 608.5,100.5 C 611.167,100.5 613.833,100.5 616.5,100.5C 616.5,103.167 616.5,105.833 616.5,108.5C 614.81,110.342 612.81,111.675 610.5,112.5C 609.167,112.5 607.833,112.5 606.5,112.5C 599.789,109.746 597.289,104.746 599,97.5C 600.167,95 602,93.1667 604.5,92C 608.295,91.1628 611.961,91.4961 615.5,93C 616.727,94.5874 616.394,95.9207 614.5,97C 612.674,97.2917 610.841,97.125 609,96.5C 604.003,97.8149 602.67,100.815 605,105.5C 607.544,108.08 610.044,108.08 612.5,105.5C 611.311,104.571 609.978,104.238 608.5,104.5C 608.5,103.167 608.5,101.833 608.5,100.5 Z"/></g>
<g><path style="opacity:1" fill="#ffffff" d="M 633.5,92.5 C 635.027,92.427 636.027,93.0937 636.5,94.5C 638.252,98.2273 638.919,102.227 638.5,106.5C 636.757,109.247 634.424,111.247 631.5,112.5C 630.167,112.5 628.833,112.5 627.5,112.5C 619.642,109.459 617.309,104.126 620.5,96.5C 621.833,95.8333 622.833,94.8333 623.5,93.5C 626.764,92.6758 630.098,92.3424 633.5,92.5 Z M 626.5,96.5 C 633,95.4987 635.5,98.1653 634,104.5C 631,108.5 628,108.5 625,104.5C 624.109,101.502 624.609,98.8357 626.5,96.5 Z"/></g>
<g><path style="opacity:1" fill="#ffffff" d="M 644.5,92.5 C 645.632,95.8938 646.966,99.2272 648.5,102.5C 650.467,99.2228 652.134,95.8895 653.5,92.5C 655.099,92.2322 656.432,92.5655 657.5,93.5C 655.974,98.9103 654.141,104.244 652,109.5C 650.33,111.698 648.33,112.032 646,110.5C 643.82,104.812 641.653,99.1455 639.5,93.5C 640.919,92.5489 642.585,92.2155 644.5,92.5 Z"/></g>
<g><path style="opacity:1" fill="#ffffff" d="M 660.5,92.5 C 665.167,92.5 669.833,92.5 674.5,92.5C 674.5,93.5 674.5,94.5 674.5,95.5C 671.311,96.1661 667.977,96.8328 664.5,97.5C 664.709,98.086 665.043,98.586 665.5,99C 668.146,99.4974 670.813,99.6641 673.5,99.5C 673.573,104.351 671.74,105.685 668,103.5C 666.795,104.071 665.628,104.738 664.5,105.5C 664.709,106.086 665.043,106.586 665.5,107C 668.482,107.498 671.482,107.665 674.5,107.5C 674.5,108.5 674.5,109.5 674.5,110.5C 669.833,110.5 665.167,110.5 660.5,110.5C 659.167,104.5 659.167,98.5 660.5,92.5 Z"/></g>
<g><path style="opacity:1" fill="#ffffff" d="M 692.5,109.5 C 691.081,110.451 689.415,110.784 687.5,110.5C 686.526,107.504 684.526,105.837 681.5,105.5C 681.5,107.5 681.5,109.5 681.5,111.5C 679.856,111.714 678.356,111.38 677,110.5C 676.191,104.251 676.358,98.0844 677.5,92C 682.558,90.9896 687.391,91.4896 692,93.5C 694.266,97.7326 693.766,101.566 690.5,105C 691.414,106.406 692.08,107.906 692.5,109.5 Z M 688.5,99.5 C 686.283,100.369 683.95,100.702 681.5,100.5C 681.5,99.1667 681.5,97.8333 681.5,96.5C 683.527,96.3379 685.527,96.5045 687.5,97C 688.252,97.6708 688.586,98.5041 688.5,99.5 Z"/></g>
<g><path style="opacity:1" fill="#ffffff" d="M 701.5,101.5 C 701.44,100.957 701.107,100.624 700.5,100.5C 699.513,103.768 699.18,107.102 699.5,110.5C 698.5,110.5 697.5,110.5 696.5,110.5C 696.5,104.5 696.5,98.5 696.5,92.5C 697.833,92.5 699.167,92.5 700.5,92.5C 701.167,93.5 701.833,94.5 702.5,95.5C 702.427,97.0269 703.094,98.0269 704.5,98.5C 705.885,99.5736 707.051,100.907 708,102.5C 708.499,98.8484 708.665,95.1817 708.5,91.5C 710.144,91.2865 711.644,91.6198 713,92.5C 713.667,98.5 713.667,104.5 713,110.5C 711.612,111.554 710.112,111.72 708.5,111C 705.949,107.956 703.616,104.789 701.5,101.5 Z"/></g>
<g><path style="opacity:1" fill="#ffffff" d="M 729.5,92.5 C 735.064,95.0641 736.898,99.3974 735,105.5C 733.134,109.216 730.301,111.55 726.5,112.5C 725.5,112.5 724.5,112.5 723.5,112.5C 714.89,108.93 712.723,102.93 717,94.5C 717.671,93.7476 718.504,93.4142 719.5,93.5C 722.764,92.6758 726.098,92.3424 729.5,92.5 Z M 722.5,96.5 C 729.556,95.942 731.723,98.942 729,105.5C 725.904,108.353 723.237,108.02 721,104.5C 720.109,101.502 720.609,98.8357 722.5,96.5 Z"/></g>
<g><path style="opacity:1" fill="#ffffff" d="M 742.5,91.5 C 747.267,91.1908 751.934,91.6908 756.5,93C 761.833,98.6667 761.833,104.333 756.5,110C 751.964,111.379 747.297,111.879 742.5,111.5C 742.5,104.833 742.5,98.1667 742.5,91.5 Z M 751.5,96.5 C 756.402,99.4253 756.735,102.759 752.5,106.5C 750.833,106.5 749.167,106.5 747.5,106.5C 747.5,103.167 747.5,99.8333 747.5,96.5C 748.833,96.5 750.167,96.5 751.5,96.5 Z"/></g>
<g><path style="opacity:1" fill="#ffffff" d="M 774.5,112.5 C 773.167,112.5 771.833,112.5 770.5,112.5C 761.576,107.643 760.243,101.143 766.5,93C 775.672,89.0285 781.338,91.8619 783.5,101.5C 782.983,107.338 779.983,111.005 774.5,112.5 Z M 769.5,96.5 C 776,95.4987 778.5,98.1653 777,104.5C 773.592,108.483 770.592,108.15 768,103.5C 767.391,100.935 767.891,98.6015 769.5,96.5 Z"/></g>
<g><path style="opacity:1" fill="#ffffff" d="M 804.5,95.5 C 801.167,95.5 797.833,95.5 794.5,95.5C 794.232,97.099 794.566,98.4324 795.5,99.5C 798.167,99.5 800.833,99.5 803.5,99.5C 803.768,101.099 803.434,102.432 802.5,103.5C 799.833,103.5 797.167,103.5 794.5,103.5C 794.232,105.099 794.566,106.432 795.5,107.5C 798.833,107.5 802.167,107.5 805.5,107.5C 805.67,108.822 805.337,109.989 804.5,111C 799.581,111.802 794.748,111.635 790,110.5C 789.333,104.5 789.333,98.5 790,92.5C 794.737,91.5308 799.57,91.1975 804.5,91.5C 804.5,92.8333 804.5,94.1667 804.5,95.5 Z"/></g>
<g><path style="opacity:1" fill="#ffffff" d="M 818.5,92.5 C 820.582,93.5849 820.916,95.0849 819.5,97C 817.433,97.5356 815.599,97.0356 814,95.5C 813.25,96.1258 812.416,96.6258 811.5,97C 814.778,98.6475 817.945,100.481 821,102.5C 822.509,107.824 820.676,111.157 815.5,112.5C 814.833,112.5 814.167,112.5 813.5,112.5C 811.611,111.678 809.611,110.845 807.5,110C 806,107.833 806.5,106.333 809,105.5C 810.667,106.167 812.333,106.833 814,107.5C 815.059,107.37 815.892,106.87 816.5,106C 813.095,104.531 809.928,102.697 807,100.5C 806.174,97.7884 806.674,95.4551 808.5,93.5C 811.764,92.6758 815.098,92.3424 818.5,92.5 Z"/></g>
<g><path style="opacity:1" fill="#ffffff" d="M 838.5,95.5 C 836.5,95.5 834.5,95.5 832.5,95.5C 832.5,100.5 832.5,105.5 832.5,110.5C 831.167,110.5 829.833,110.5 828.5,110.5C 828.5,106.167 828.5,101.833 828.5,97.5C 827.082,95.6921 825.082,95.0254 822.5,95.5C 822.5,94.1667 822.5,92.8333 822.5,91.5C 827.844,91.334 833.177,91.5006 838.5,92C 839.791,93.2917 839.791,94.4583 838.5,95.5 Z"/></g>
<g><path style="opacity:1" fill="#ffffff" d="M 843.5,91.5 C 845.288,91.2148 846.955,91.5481 848.5,92.5C 851.434,98.638 853.767,104.971 855.5,111.5C 851.858,110.82 848.525,109.487 845.5,107.5C 842.475,109.487 839.142,110.82 835.5,111.5C 837.609,104.614 840.276,97.9475 843.5,91.5 Z M 847.5,102.5 C 845.821,102.715 844.821,102.048 844.5,100.5C 846.025,99.6112 847.025,100.278 847.5,102.5 Z"/></g>
<g><path style="opacity:1" fill="#ffffff" d="M 870.5,92.5 C 871.785,94.4516 873.451,96.1182 875.5,97.5C 877.401,102.353 876.401,106.52 872.5,110C 867.953,111.545 863.287,111.879 858.5,111C 857.358,104.916 857.191,98.7489 858,92.5C 862.166,91.1968 866.333,91.1968 870.5,92.5 Z M 867.5,96.5 C 872.79,99.8931 872.79,103.226 867.5,106.5C 866.167,106.5 864.833,106.5 863.5,106.5C 863.5,103.167 863.5,99.8333 863.5,96.5C 864.833,96.5 866.167,96.5 867.5,96.5 Z"/></g>
<g><path style="opacity:1" fill="#ffffff" d="M 899.5,100.5 C 899.5,101.5 899.5,102.5 899.5,103.5C 897.475,107.525 894.475,110.525 890.5,112.5C 889.167,112.5 887.833,112.5 886.5,112.5C 878.931,109.651 876.431,104.318 879,96.5C 884.708,90.2849 890.708,89.9515 897,95.5C 897.757,97.3146 898.59,98.9812 899.5,100.5 Z M 885.5,96.5 C 891.85,95.5249 894.35,98.1916 893,104.5C 889.905,108.327 886.905,108.327 884,104.5C 883.109,101.502 883.609,98.8357 885.5,96.5 Z"/></g>
<g><path style="opacity:1" fill="#ffffff" d="M 439.5,82.5 C 441.833,82.5 444.167,82.5 446.5,82.5C 446.578,85.4867 445.411,86.1534 443,84.5C 438.968,85.7281 437.801,88.2281 439.5,92C 448.721,94.4788 448.387,95.4788 438.5,95C 434.334,90.3683 434.667,86.2017 439.5,82.5 Z"/></g>
<g><path style="opacity:1" fill="#ffffff" d="M 870.5,92.5 C 873.189,93.1894 874.856,94.856 875.5,97.5C 873.451,96.1182 871.785,94.4516 870.5,92.5 Z"/></g>
<g><path style="opacity:1" fill="#ffffff" d="M 259.5,93.5 C 260.043,93.56 260.376,93.8933 260.5,94.5C 258.157,95.2749 255.823,95.9416 253.5,96.5C 253.5,95.8333 253.5,95.1667 253.5,94.5C 254.167,94.5 254.833,94.5 255.5,94.5C 257.099,94.7678 258.432,94.4345 259.5,93.5 Z"/></g>
<g><path style="opacity:1" fill="#ffffff" d="M 266.5,90.5 C 266.177,94.226 266.511,97.8927 267.5,101.5C 268.168,99.0312 268.835,96.6979 269.5,94.5C 269.664,97.1873 269.497,99.854 269,102.5C 268,103.833 267,103.833 266,102.5C 265.188,98.3112 265.355,94.3112 266.5,90.5 Z"/></g>
<g><path style="opacity:1" fill="#ffffff" d="M 291.5,93.5 C 292.568,94.4345 293.901,94.7678 295.5,94.5C 293.285,95.2679 290.952,95.9346 288.5,96.5C 288.5,95.8333 288.5,95.1667 288.5,94.5C 289.609,94.4431 290.609,94.1098 291.5,93.5 Z"/></g>
<g><path style="opacity:1" fill="#ffffff" d="M 623.5,93.5 C 622.833,94.8333 621.833,95.8333 620.5,96.5C 620.5,94.5 621.5,93.5 623.5,93.5 Z"/></g>
<g><path style="opacity:1" fill="#ffffff" d="M 804.5,95.5 C 801.713,96.4767 798.713,96.81 795.5,96.5C 795.5,97.5 795.5,98.5 795.5,99.5C 794.566,98.4324 794.232,97.099 794.5,95.5C 797.833,95.5 801.167,95.5 804.5,95.5 Z"/></g>
<g><path style="opacity:1" fill="#ffffff" d="M 822.5,95.5 C 825.082,95.0254 827.082,95.6921 828.5,97.5C 826.374,96.9518 824.374,96.2852 822.5,95.5 Z"/></g>
<g><path style="opacity:1" fill="#ffffff" d="M 467.5,97.5 C 468.5,97.5 469.5,97.5 470.5,97.5C 470.937,102.361 470.437,107.028 469,111.5C 467.563,107.028 467.063,102.361 467.5,97.5 Z"/></g>
<g><path style="opacity:1" fill="#ffffff" d="M 702.5,95.5 C 703.906,95.9731 704.573,96.9731 704.5,98.5C 703.094,98.0269 702.427,97.0269 702.5,95.5 Z"/></g>
<g><path style="opacity:1" fill="#ffffff" d="M 283.5,102.5 C 282.198,100.972 280.531,99.9724 278.5,99.5C 280.929,99.1156 283.263,98.449 285.5,97.5C 285.88,99.698 285.213,101.365 283.5,102.5 Z"/></g>
<g><path style="opacity:1" fill="#ffffff" d="M 441.5,106.5 C 441.5,105.833 441.5,105.167 441.5,104.5C 442.234,103.292 442.567,101.959 442.5,100.5C 441.5,100.5 440.5,100.5 439.5,100.5C 439.5,101.833 439.5,103.167 439.5,104.5C 438.698,103.048 438.198,101.382 438,99.5C 437.19,103.358 437.357,107.024 438.5,110.5C 438.44,111.043 438.107,111.376 437.5,111.5C 436.508,107.217 436.174,102.884 436.5,98.5C 439.249,98.2739 441.916,98.6072 444.5,99.5C 446.317,103.133 445.317,105.467 441.5,106.5 Z M 441.5,104.5 C 440.833,104.5 440.167,104.5 439.5,104.5C 439.5,103.167 439.5,101.833 439.5,100.5C 440.5,100.5 441.5,100.5 442.5,100.5C 442.567,101.959 442.234,103.292 441.5,104.5 Z"/></g>
<g><path style="opacity:1" fill="#ffffff" d="M 751.5,96.5 C 750.167,96.5 748.833,96.5 747.5,96.5C 747.5,99.8333 747.5,103.167 747.5,106.5C 749.167,106.5 750.833,106.5 752.5,106.5C 750.735,107.461 748.735,107.795 746.5,107.5C 746.5,103.5 746.5,99.5 746.5,95.5C 748.415,95.2155 750.081,95.5489 751.5,96.5 Z"/></g>
<g><path style="opacity:1" fill="#ffffff" d="M 291.5,97.5 C 291.821,99.0481 292.821,99.7148 294.5,99.5C 293.432,100.434 292.099,100.768 290.5,100.5C 290.263,99.209 290.596,98.209 291.5,97.5 Z"/></g>
<g><path style="opacity:1" fill="#ffffff" d="M 439.5,104.5 C 440.167,104.5 440.833,104.5 441.5,104.5C 441.5,105.167 441.5,105.833 441.5,106.5C 440.022,107.448 439.022,108.781 438.5,110.5C 437.357,107.024 437.19,103.358 438,99.5C 438.198,101.382 438.698,103.048 439.5,104.5 Z"/></g>
<g><path style="opacity:1" fill="#ffffff" d="M 486.5,98.5 C 488.924,98.1924 491.257,98.5258 493.5,99.5C 487.104,100.933 487.104,102.767 493.5,105C 494.935,107.267 494.602,109.267 492.5,111C 490.19,111.497 487.857,111.663 485.5,111.5C 485.5,110.5 485.5,109.5 485.5,108.5C 487.86,109.916 489.86,109.583 491.5,107.5C 489.78,106.08 487.946,104.747 486,103.5C 485.36,101.735 485.527,100.068 486.5,98.5 Z"/></g>
<g><path style="opacity:1" fill="#ffffff" d="M 636.5,94.5 C 637.458,94.9528 638.292,95.6195 639,96.5C 639.808,100.027 639.641,103.36 638.5,106.5C 638.919,102.227 638.252,98.2273 636.5,94.5 Z"/></g>
<g><path style="opacity:1" fill="#ffffff" d="M 838.5,95.5 C 837.081,96.4511 835.415,96.7845 833.5,96.5C 833.5,101.5 833.5,106.5 833.5,111.5C 831.585,111.784 829.919,111.451 828.5,110.5C 829.833,110.5 831.167,110.5 832.5,110.5C 832.5,105.5 832.5,100.5 832.5,95.5C 834.5,95.5 836.5,95.5 838.5,95.5 Z"/></g>
<g><path style="opacity:1" fill="#ffffff" d="M 867.5,96.5 C 866.167,96.5 864.833,96.5 863.5,96.5C 863.5,99.8333 863.5,103.167 863.5,106.5C 864.833,106.5 866.167,106.5 867.5,106.5C 866.081,107.451 864.415,107.784 862.5,107.5C 862.5,103.5 862.5,99.5 862.5,95.5C 864.415,95.2155 866.081,95.5489 867.5,96.5 Z"/></g>
<g><path style="opacity:1" fill="#ffffff" d="M 688.5,99.5 C 687.848,100.725 686.681,101.392 685,101.5C 683.615,101.486 682.449,101.152 681.5,100.5C 683.95,100.702 686.283,100.369 688.5,99.5 Z"/></g>
<g><path style="opacity:1" fill="#ffffff" d="M 261.5,90.5 C 262.117,90.6107 262.617,90.944 263,91.5C 263.667,95.1667 263.667,98.8333 263,102.5C 260.74,102.471 258.407,102.804 256,103.5C 254.699,103.361 253.866,102.695 253.5,101.5C 255.199,101.66 256.866,101.494 258.5,101C 257.263,100.768 256.263,100.268 255.5,99.5C 256.833,99.5 258.167,99.5 259.5,99.5C 259.811,100.478 260.478,101.145 261.5,101.5C 262.683,97.8253 262.683,94.1586 261.5,90.5 Z"/></g>
<g><path style="opacity:1" fill="#ffffff" d="M 298.5,92.5 C 299.82,95.8987 299.82,99.3987 298.5,103C 296.344,102.31 294.177,102.477 292,103.5C 290.541,103.192 289.374,102.525 288.5,101.5C 291.833,101.5 295.167,101.5 298.5,101.5C 298.5,98.5 298.5,95.5 298.5,92.5 Z"/></g>
<g><path style="opacity:1" fill="#ffffff" d="M 524.5,103.5 C 522.5,102.167 520.5,102.167 518.5,103.5C 516.621,103.607 516.288,103.107 517.5,102C 520.227,101.182 522.894,101.348 525.5,102.5C 525.376,103.107 525.043,103.44 524.5,103.5 Z"/></g>
<g><path style="opacity:1" fill="#ffffff" d="M 457.5,110.5 C 459.833,110.5 462.167,110.5 464.5,110.5C 464.664,107.813 464.497,105.146 464,102.5C 463.809,104.708 463.309,106.708 462.5,108.5C 462.5,106.167 462.5,103.833 462.5,101.5C 463.5,101.5 464.5,101.5 465.5,101.5C 465.5,104.833 465.5,108.167 465.5,111.5C 462.615,111.806 459.948,111.473 457.5,110.5 Z"/></g>
<g><path style="opacity:1" fill="#ffffff" d="M 497.5,101.5 C 502.083,100.343 504.75,102.01 505.5,106.5C 503.674,111.699 500.507,112.699 496,109.5C 495.109,106.502 495.609,103.836 497.5,101.5 Z M 499.5,103.5 C 503.206,105.032 503.373,107.032 500,109.5C 496.898,107.663 496.731,105.663 499.5,103.5 Z"/></g>
<g><path style="opacity:1" fill="#ffffff" d="M 507.5,102.5 C 507.56,101.957 507.893,101.624 508.5,101.5C 509.474,103.743 509.808,106.076 509.5,108.5C 508.833,106.5 508.167,104.5 507.5,102.5 Z"/></g>
<g><path style="opacity:1" fill="#ffffff" d="M 513.5,110.5 C 513.5,107.833 513.5,105.167 513.5,102.5C 513.56,101.957 513.893,101.624 514.5,101.5C 515.833,104.833 515.833,108.167 514.5,111.5C 513.893,111.376 513.56,111.043 513.5,110.5 Z"/></g>
<g><path style="opacity:1" fill="#ffffff" d="M 518.5,103.5 C 520.5,102.167 522.5,102.167 524.5,103.5C 523.974,105.23 522.974,106.564 521.5,107.5C 520.957,107.56 520.624,107.893 520.5,108.5C 521.729,109.281 523.062,109.781 524.5,110C 521.961,110.796 519.628,110.629 517.5,109.5C 517.738,107.596 518.738,106.262 520.5,105.5C 521.043,105.44 521.376,105.107 521.5,104.5C 520.675,103.614 519.675,103.281 518.5,103.5 Z"/></g>
<g><path style="opacity:1" fill="#ffffff" d="M 608.5,100.5 C 611.287,99.5233 614.287,99.19 617.5,99.5C 617.81,102.713 617.477,105.713 616.5,108.5C 616.5,105.833 616.5,103.167 616.5,100.5C 613.833,100.5 611.167,100.5 608.5,100.5 Z"/></g>
<g><path style="opacity:1" fill="#ffffff" d="M 844.5,100.5 C 844.821,102.048 845.821,102.715 847.5,102.5C 846.432,103.434 845.099,103.768 843.5,103.5C 843.263,102.209 843.596,101.209 844.5,100.5 Z"/></g>
<g><path style="opacity:1" fill="#ffffff" d="M 453.5,103.5 C 452.533,104.806 451.199,105.473 449.5,105.5C 450.679,103.493 450.179,103.16 448,104.5C 445.935,102.618 446.435,101.618 449.5,101.5C 451.355,101.34 452.688,102.007 453.5,103.5 Z"/></g>
<g><path style="opacity:1" fill="#ffffff" d="M 518.5,103.5 C 519.675,103.281 520.675,103.614 521.5,104.5C 521.376,105.107 521.043,105.44 520.5,105.5C 519.833,104.833 519.167,104.167 518.5,103.5 Z"/></g>
<g><path style="opacity:1" fill="#ffffff" d="M 453.5,103.5 C 454.833,105.833 454.833,108.167 453.5,110.5C 451.901,110.768 450.568,110.434 449.5,109.5C 451.085,108.998 451.585,107.998 451,106.5C 450.005,107.066 449.172,107.733 448.5,108.5C 448.5,109.833 447.833,110.5 446.5,110.5C 445.259,107.704 446.259,106.037 449.5,105.5C 451.199,105.473 452.533,104.806 453.5,103.5 Z M 449.5,109.5 C 449.5,108.833 449.167,108.5 448.5,108.5C 449.172,107.733 450.005,107.066 451,106.5C 451.585,107.998 451.085,108.998 449.5,109.5 Z"/></g>
<g><path style="opacity:1" fill="#ffffff" d="M 526.5,110.5 C 526.5,109.167 526.5,107.833 526.5,106.5C 527.808,105.768 529.142,104.934 530.5,104C 529.551,103.383 528.718,103.549 528,104.5C 525.935,102.618 526.435,101.618 529.5,101.5C 533.009,101.808 534.676,103.808 534.5,107.5C 534.43,108.772 534.097,109.938 533.5,111C 530.961,111.796 528.628,111.629 526.5,110.5 Z M 530.5,106.5 C 531.737,107.743 531.404,108.743 529.5,109.5C 529.167,109.167 528.833,108.833 528.5,108.5C 529.243,107.818 529.909,107.151 530.5,106.5 Z"/></g>
<g><path style="opacity:1" fill="#ffffff" d="M 700.5,92.5 C 699.167,92.5 697.833,92.5 696.5,92.5C 696.5,98.5 696.5,104.5 696.5,110.5C 697.5,110.5 698.5,110.5 699.5,110.5C 699.18,107.102 699.513,103.768 700.5,100.5C 701.107,100.624 701.44,100.957 701.5,101.5C 700.521,104.625 700.187,107.958 700.5,111.5C 698.833,111.5 697.167,111.5 695.5,111.5C 695.5,104.833 695.5,98.1667 695.5,91.5C 697.415,91.2155 699.081,91.5489 700.5,92.5 Z"/></g>
<g><path style="opacity:1" fill="#ffffff" d="M 802.5,103.5 C 800.393,104.468 798.059,104.802 795.5,104.5C 795.5,105.5 795.5,106.5 795.5,107.5C 794.566,106.432 794.232,105.099 794.5,103.5C 797.167,103.5 799.833,103.5 802.5,103.5 Z"/></g>
<g><path style="opacity:1" fill="#ffffff" d="M 275.5,100.5 C 277.729,101.055 279.395,102.389 280.5,104.5C 281.182,103.757 281.849,103.091 282.5,102.5C 283.868,105.023 283.034,106.69 280,107.5C 277.659,106.993 277.159,105.826 278.5,104C 277.29,102.961 276.29,101.794 275.5,100.5 Z"/></g>
<g><path style="opacity:1" fill="#ffffff" d="M 448.5,108.5 C 449.167,108.5 449.5,108.833 449.5,109.5C 450.568,110.434 451.901,110.768 453.5,110.5C 451.167,111.833 448.833,111.833 446.5,110.5C 447.833,110.5 448.5,109.833 448.5,108.5 Z"/></g>
<g><path style="opacity:1" fill="#ffffff" d="M 458.5,107.5 C 459.053,109.552 460.053,109.885 461.5,108.5C 461.833,108.5 462.167,108.5 462.5,108.5C 463.309,106.708 463.809,104.708 464,102.5C 464.497,105.146 464.664,107.813 464.5,110.5C 462.167,110.5 459.833,110.5 457.5,110.5C 456.197,107.645 456.197,104.645 457.5,101.5C 458.865,103.554 459.199,105.554 458.5,107.5 Z"/></g>
<g><path style="opacity:1" fill="#ffffff" d="M 458.5,107.5 C 459.391,108.11 460.391,108.443 461.5,108.5C 460.053,109.885 459.053,109.552 458.5,107.5 Z"/></g>
<g><path style="opacity:1" fill="#ffffff" d="M 472.5,101.5 C 474.604,101.201 476.604,101.534 478.5,102.5C 479.407,105.421 479.74,108.421 479.5,111.5C 476.881,111.768 474.381,111.435 472,110.5C 471.333,109.167 471.333,107.833 472,106.5C 473.609,105.853 475.109,105.02 476.5,104C 475.216,103.316 474.049,103.483 473,104.5C 472.517,103.552 472.351,102.552 472.5,101.5 Z M 475.5,106.5 C 476.713,107.497 476.546,108.497 475,109.5C 474.53,108.423 474.697,107.423 475.5,106.5 Z"/></g>
<g><path style="opacity:1" fill="#ffffff" d="M 507.5,102.5 C 508.167,104.5 508.833,106.5 509.5,108.5C 510.5,109.167 511.5,109.833 512.5,110.5C 510.511,111.887 508.678,111.553 507,109.5C 506.204,106.961 506.371,104.628 507.5,102.5 Z"/></g>
<g><path style="opacity:1" fill="#ffffff" d="M 513.5,102.5 C 513.5,105.167 513.5,107.833 513.5,110.5C 513.167,110.5 512.833,110.5 512.5,110.5C 511.5,109.833 510.5,109.167 509.5,108.5C 510.5,108.5 511.5,108.5 512.5,108.5C 512.205,106.265 512.539,104.265 513.5,102.5 Z"/></g>
<g><path style="opacity:1" fill="#ffffff" d="M 526.5,106.5 C 526.5,107.833 526.5,109.167 526.5,110.5C 523.207,111.751 519.874,111.751 516.5,110.5C 516.624,109.893 516.957,109.56 517.5,109.5C 519.628,110.629 521.961,110.796 524.5,110C 523.062,109.781 521.729,109.281 520.5,108.5C 520.624,107.893 520.957,107.56 521.5,107.5C 523.357,108.765 525.024,108.432 526.5,106.5 Z"/></g>
<g><path style="opacity:1" fill="#ffffff" d="M 674.5,107.5 C 675.434,108.568 675.768,109.901 675.5,111.5C 670.305,111.821 665.305,111.487 660.5,110.5C 665.167,110.5 669.833,110.5 674.5,110.5C 674.5,109.5 674.5,108.5 674.5,107.5 Z"/></g>
<g><path style="opacity:1" fill="#ffffff" d="M 692.5,109.5 C 693.043,109.56 693.376,109.893 693.5,110.5C 691.364,111.793 689.364,111.793 687.5,110.5C 689.415,110.784 691.081,110.451 692.5,109.5 Z"/></g>
</svg>