<?xml version="1.0" encoding="UTF-8"?>
<!DOCTYPE svg PUBLIC "-//W3C//DTD SVG 1.1//EN" "http://www.w3.org/Graphics/SVG/1.1/DTD/svg11.dtd">
<svg xmlns="http://www.w3.org/2000/svg" version="1.1" width="500px" height="500px" style="shape-rendering:geometricPrecision; text-rendering:geometricPrecision; image-rendering:optimizeQuality; fill-rule:evenodd; clip-rule:evenodd" xmlns:xlink="http://www.w3.org/1999/xlink">
<g><path style="opacity:1" fill="#0b0b0b" d="M 47.5,207.5 C 58.3694,205.962 68.3694,208.128 77.5,214C 82.3743,220.12 81.041,224.287 73.5,226.5C 65.1829,220.201 56.1829,219.035 46.5,223C 37.6755,231.129 35.1755,240.963 39,252.5C 44.6331,263.878 53.4664,267.544 65.5,263.5C 66.4933,258.88 66.8266,254.214 66.5,249.5C 59.601,251.257 54.9343,248.924 52.5,242.5C 53.2531,240.247 54.5864,238.413 56.5,237C 63.8333,236.333 71.1667,236.333 78.5,237C 80.8147,238.109 82.3147,239.943 83,242.5C 83.9095,251.244 83.5762,259.911 82,268.5C 66.659,280.165 50.4923,281.332 33.5,272C 19.9812,258.715 16.8146,243.215 24,225.5C 29.2565,215.974 37.0898,209.974 47.5,207.5 Z"/></g>
<g><path style="opacity:1" fill="#0d0d0d" d="M 228.5,207.5 C 233.28,206.641 236.78,208.308 239,212.5C 239.667,232.833 239.667,253.167 239,273.5C 234.504,279.963 229.838,279.963 225,273.5C 210.475,281.951 199.475,278.617 192,263.5C 188.328,251.373 190.494,240.54 198.5,231C 206.622,225.291 214.789,225.125 223,230.5C 223.333,225.167 223.667,219.833 224,214.5C 224.545,211.473 226.045,209.14 228.5,207.5 Z M 211.5,238.5 C 217.493,237.332 221.326,239.665 223,245.5C 223.667,250.167 223.667,254.833 223,259.5C 219.76,266.951 214.927,268.285 208.5,263.5C 205.246,257.048 204.746,250.381 207,243.5C 208.025,241.313 209.525,239.646 211.5,238.5 Z"/></g>
<g><path style="opacity:1" fill="#ff3634" d="M 305.5,272.5 C 305.832,259.816 305.499,247.149 304.5,234.5C 303.893,234.624 303.56,234.957 303.5,235.5C 299.687,241.109 295.853,246.776 292,252.5C 288.5,257.286 284.667,257.619 280.5,253.5C 276.475,247.815 272.475,242.149 268.5,236.5C 268.44,235.957 268.107,235.624 267.5,235.5C 266.501,247.148 266.168,258.814 266.5,270.5C 266.26,275.218 263.76,277.884 259,278.5C 255.206,278.044 252.539,276.044 251,272.5C 250.035,251.769 250.368,231.102 252,210.5C 255.453,207.231 259.286,206.731 263.5,209C 271.364,218.564 278.864,228.397 286,238.5C 292.667,229.167 299.333,219.833 306,210.5C 312.769,205.509 317.769,206.843 321,214.5C 321.667,233.167 321.667,251.833 321,270.5C 318.534,277.651 314.034,279.484 307.5,276C 306.177,275.184 305.511,274.017 305.5,272.5 Z"/></g>
<g><path style="opacity:1" fill="#ff3433" d="M 401.5,207.5 C 405.192,206.971 408.358,207.971 411,210.5C 412.41,216.379 412.91,222.379 412.5,228.5C 415.187,228.336 417.854,228.503 420.5,229C 424.485,232.286 424.485,235.619 420.5,239C 417.854,239.497 415.187,239.664 412.5,239.5C 412.667,250.505 412.5,261.505 412,272.5C 407.684,279.883 403.017,280.216 398,273.5C 397.5,262.172 397.333,250.838 397.5,239.5C 394.421,239.74 391.421,239.407 388.5,238.5C 385.878,235.297 385.878,232.13 388.5,229C 391.482,228.502 394.482,228.335 397.5,228.5C 397.334,222.824 397.501,217.157 398,211.5C 399.376,210.295 400.542,208.962 401.5,207.5 Z"/></g>
<g><path style="opacity:1" fill="#121212" d="M 98.5,226.5 C 103.048,226.199 106.215,228.199 108,232.5C 113.571,227.02 119.904,225.687 127,228.5C 128.665,231.563 128.165,234.396 125.5,237C 119.501,237.25 114.667,239.75 111,244.5C 109.749,253.759 109.082,263.092 109,272.5C 103.359,280.835 98.3586,280.502 94,271.5C 93.3333,258.5 93.3333,245.5 94,232.5C 94.5985,229.746 96.0985,227.746 98.5,226.5 Z"/></g>
<g><path style="opacity:1" fill="#0d0d0d" d="M 151.5,226.5 C 174.414,224.413 184.414,234.747 181.5,257.5C 181.333,262.833 181.167,268.167 181,273.5C 176.055,280.072 171.388,279.739 167,272.5C 158.482,278.602 149.316,279.769 139.5,276C 133.185,271.394 131.019,265.228 133,257.5C 134.061,254.438 135.894,251.938 138.5,250C 147.119,245.983 155.953,245.149 165,247.5C 166.165,243.316 164.665,240.483 160.5,239C 153.948,238.122 147.615,238.955 141.5,241.5C 135.71,238.592 135.043,234.758 139.5,230C 143.543,228.509 147.543,227.342 151.5,226.5 Z M 154.5,254.5 C 158.135,255.114 161.802,255.448 165.5,255.5C 164.076,265.05 158.743,268.217 149.5,265C 146.191,259.118 147.858,255.618 154.5,254.5 Z"/></g>
<g><path style="opacity:1" fill="#ff3836" d="M 350.5,226.5 C 373.144,224.979 382.81,235.479 379.5,258C 379.333,262.833 379.167,267.667 379,272.5C 377.336,277.038 374.169,278.538 369.5,277C 367.448,276.07 365.948,274.57 365,272.5C 353.308,280.905 342.308,280.239 332,270.5C 327.914,258.169 332.08,250.335 344.5,247C 351.34,246.598 358.007,246.431 364.5,246.5C 363.797,242.963 361.797,240.463 358.5,239C 352.394,238.267 346.394,238.767 340.5,240.5C 335.001,240.487 333.168,237.82 335,232.5C 335.833,231.667 336.667,230.833 337.5,230C 341.919,228.648 346.252,227.481 350.5,226.5 Z M 350.5,254.5 C 354.857,254.586 359.19,254.92 363.5,255.5C 363.581,262.585 360.081,266.252 353,266.5C 347.368,266.542 345.034,263.876 346,258.5C 347.25,256.807 348.75,255.473 350.5,254.5 Z"/></g>
<g><path style="opacity:1" fill="#ff3936" d="M 449.5,226.5 C 468.519,226.353 478.019,235.686 478,254.5C 476.829,255.893 475.329,256.727 473.5,257C 463.483,257.168 453.483,257.668 443.5,258.5C 446.413,265.087 451.413,267.587 458.5,266C 461.984,264.643 465.317,263.143 468.5,261.5C 475.154,263.275 476.154,266.775 471.5,272C 457.189,281.195 444.022,279.695 432,267.5C 424.707,253.53 426.874,241.363 438.5,231C 442.157,229.178 445.824,227.678 449.5,226.5 Z M 449.5,238.5 C 456.576,237.416 461.242,240.249 463.5,247C 456.808,247.831 450.142,247.664 443.5,246.5C 444.406,242.938 446.406,240.272 449.5,238.5 Z"/></g>
<g><path style="opacity:1" fill="#ff8989" d="M 268.5,236.5 C 267.833,247.833 267.167,259.167 266.5,270.5C 266.168,258.814 266.501,247.148 267.5,235.5C 268.107,235.624 268.44,235.957 268.5,236.5 Z"/></g>
<g><path style="opacity:1" fill="#ff5857" d="M 303.5,235.5 C 303.56,234.957 303.893,234.624 304.5,234.5C 305.499,247.149 305.832,259.816 305.5,272.5C 304.833,260.167 304.167,247.833 303.5,235.5 Z"/></g>
</svg>
